<?xml version="1.0" standalone="no"?>
<!DOCTYPE svg PUBLIC "-//W3C//DTD SVG 20010904//EN"
 "http://www.w3.org/TR/2001/REC-SVG-20010904/DTD/svg10.dtd">
<svg version="1.0" xmlns="http://www.w3.org/2000/svg"
 width="512.000000pt" height="512.000000pt" viewBox="0 0 512.000000 512.000000"
 preserveAspectRatio="xMidYMid meet">
<metadata>
Created by potrace 1.14, written by Peter Selinger 2001-2017
</metadata>
<g transform="translate(0.000000,512.000000) scale(0.100000,-0.100000)"
fill="#000000" stroke="none">
<path d="M3230 4450 c-58 -4 -139 -17 -180 -29 -41 -11 -83 -21 -93 -21 -17 0
-121 -40 -297 -114 -77 -32 -94 -36 -177 -36 -76 0 -93 -3 -93 -15 0 -11 12
-15 48 -15 26 0 52 -4 58 -10 6 -6 42 0 99 15 50 14 103 28 119 32 16 3 31 13
33 22 2 10 42 33 91 54 118 52 119 52 107 40 -5 -6 -35 -21 -65 -33 -30 -13
-64 -33 -75 -45 -11 -12 -37 -34 -58 -50 -26 -20 -37 -34 -35 -49 3 -19 9 -21
56 -18 l53 3 -7 -28 c-4 -15 -11 -32 -15 -38 -5 -5 -9 -20 -10 -35 0 -22 -1
-23 -8 -5 -8 20 -31 -148 -31 -230 0 -143 -46 73 -57 272 -3 52 -11 96 -16
100 -10 6 -4 -205 8 -257 3 -14 10 -65 16 -115 12 -98 3 -150 -25 -139 -29 11
-73 205 -92 407 -7 69 -12 81 -16 34 -1 -15 -8 -27 -16 -27 -18 0 -137 66
-152 85 -6 7 -17 12 -25 9 -7 -3 -16 -1 -20 5 -3 6 -22 11 -42 11 -27 0 -34 3
-29 15 3 8 -4 24 -16 35 l-22 20 32 -11 c18 -6 36 -8 40 -4 8 8 -16 23 -87 52
-29 13 -59 30 -65 39 -13 18 -100 29 -231 29 -93 0 -245 -32 -245 -51 0 -8 7
-11 18 -8 12 4 11 0 -6 -13 -100 -80 -114 -85 -92 -33 8 19 20 30 32 30 10 0
16 5 13 10 -3 6 -1 10 6 10 7 0 10 2 7 5 -2 3 -28 -2 -57 -11 -29 -8 -60 -14
-69 -12 -9 2 -28 -8 -42 -23 -14 -14 -53 -43 -88 -63 -34 -21 -60 -41 -57 -46
3 -5 0 -12 -6 -16 -8 -4 -9 -3 -5 4 14 22 -11 12 -67 -28 -30 -22 -63 -40 -72
-40 -8 0 -18 -7 -21 -15 -4 -9 -11 -14 -18 -13 -17 3 -56 -12 -57 -23 -1 -5
-2 -13 -3 -18 0 -6 -7 -16 -14 -22 -10 -11 -12 -9 -12 5 0 9 -4 14 -10 11 -5
-3 -10 -15 -10 -25 0 -10 -4 -20 -9 -22 -14 -5 -111 -98 -114 -109 -1 -5 -21
-31 -45 -57 -23 -26 -51 -64 -61 -84 -10 -21 -21 -34 -25 -30 -4 4 -7 3 -6 -3
4 -20 0 -36 -9 -31 -5 3 -15 -2 -22 -11 -10 -12 -10 -14 -2 -9 7 4 13 4 13 -1
-1 -13 -26 -43 -32 -38 -8 8 -39 -44 -44 -73 -3 -15 -10 -42 -16 -61 -10 -33
-11 -33 -22 -13 l-11 22 -14 -23 c-13 -20 -13 -21 2 -8 15 12 17 9 17 -33 0
-26 -6 -57 -14 -69 -20 -30 -76 -172 -75 -189 0 -7 9 10 20 37 11 28 17 39 14
25 -2 -14 -5 -35 -5 -47 0 -13 -9 -32 -19 -42 -11 -11 -27 -43 -35 -72 -19
-63 -19 -91 -1 -34 14 43 19 28 9 -24 -4 -18 -12 -30 -18 -28 -8 3 -11 -30
-11 -109 0 -63 3 -114 6 -114 3 0 4 -22 1 -49 -4 -50 9 -74 31 -52 18 18 25
13 51 -38 l24 -49 -21 -7 c-21 -6 -21 -7 5 -18 14 -7 49 -35 77 -64 57 -56 89
-70 124 -52 l22 12 -20 -23 c-11 -12 -37 -31 -58 -41 -20 -11 -37 -23 -37 -28
0 -4 -12 -14 -27 -21 -16 -8 -40 -22 -55 -32 -14 -10 -34 -15 -43 -12 -9 4
-26 2 -38 -4 -12 -6 -45 -16 -74 -22 -49 -11 -83 -33 -70 -46 3 -3 15 0 27 6
38 21 31 5 -25 -56 -30 -32 -55 -62 -55 -66 0 -4 -11 -19 -24 -33 -39 -42 -48
-191 -15 -232 14 -16 46 -17 51 -1 4 10 23 -19 94 -141 12 -20 26 -35 33 -34
6 2 11 -5 11 -15 0 -23 43 -65 68 -67 11 0 34 -15 53 -33 19 -18 37 -32 41
-32 7 0 16 -7 69 -55 26 -25 106 -64 144 -71 20 -3 39 -13 42 -21 3 -7 24 -23
47 -35 l41 -22 -45 -9 c-54 -10 -78 -29 -58 -44 22 -16 127 -51 238 -78 58
-13 139 -38 180 -54 41 -16 122 -44 179 -62 96 -30 104 -31 113 -15 7 12 13
14 21 7 7 -5 57 -11 112 -13 89 -4 112 -9 205 -46 58 -23 137 -49 175 -58 68
-15 197 -42 242 -50 13 -3 22 -8 22 -12 -3 -18 3 -19 42 -11 51 12 64 4 38
-22 -29 -29 -15 -39 52 -39 49 0 59 3 59 18 0 13 2 14 9 3 7 -10 20 -12 52 -6
53 9 101 14 194 19 122 6 377 78 764 217 30 10 55 19 57 19 1 0 0 -9 -3 -20
-8 -29 7 -25 39 13 15 17 27 25 26 17 -4 -19 33 -15 76 9 89 51 204 125 226
145 28 26 47 35 105 51 17 4 54 18 83 31 29 13 59 24 67 24 7 0 17 5 20 10 14
22 -76 1 -101 -24 -8 -9 -22 -16 -30 -16 -23 0 29 48 114 104 63 43 103 81
162 152 17 22 71 111 71 119 0 3 2 10 4 17 25 65 41 148 31 159 -8 9 -8 10 2
5 6 -4 12 -3 12 2 0 6 9 8 19 5 13 -3 21 2 26 16 9 29 25 16 25 -20 0 -16 4
-29 9 -29 11 0 3 69 -10 85 -4 6 -17 44 -28 85 -11 42 -23 84 -26 95 -6 17 -4
16 13 -4 21 -26 42 -21 42 9 0 11 -9 39 -19 62 -10 24 -24 55 -30 70 -6 17
-33 40 -76 65 -36 20 -65 41 -65 46 0 4 4 5 10 2 5 -3 21 6 35 22 20 22 26 25
34 14 13 -20 29 -5 41 40 8 29 22 47 50 67 30 20 39 34 40 55 0 15 7 42 16 59
18 35 29 125 20 162 -5 20 -13 26 -32 26 -18 0 -24 4 -21 14 3 7 -5 44 -18 82
-23 68 -30 70 -38 9 -3 -25 -4 -24 -6 9 -1 41 -99 308 -132 362 -10 17 -19 35
-19 40 0 11 23 -22 53 -77 74 -133 90 -160 93 -156 6 6 -16 56 -40 91 -17 26
-41 70 -99 179 -12 24 -23 34 -27 27 -4 -7 -10 2 -14 21 -3 18 -5 34 -3 36 2
2 17 -15 32 -37 15 -22 29 -40 32 -40 7 0 -26 57 -41 69 -9 8 -16 19 -16 27 0
7 -21 39 -47 71 -49 60 -57 72 -105 158 -15 28 -32 50 -38 50 -11 0 -66 80
-118 172 -18 33 -60 90 -93 128 -61 71 -76 99 -36 71 60 -43 55 -32 -21 42
-77 76 -102 97 -87 72 10 -16 -1 -11 -16 7 -10 11 -10 14 -1 9 6 -4 12 -3 12
3 0 6 -19 19 -42 31 -24 11 -70 36 -102 56 -59 35 -350 130 -376 122 -3 -1
-52 -5 -110 -8z m-90 -49 c-14 -4 -43 -11 -65 -14 l-40 -6 40 14 c22 7 51 13
65 13 l25 0 -25 -7z m130 -10 c0 -12 -29 -23 -41 -15 -5 3 -7 10 -4 15 8 12
45 12 45 0z m-1230 -17 l35 -14 -35 4 c-19 3 -51 9 -70 14 l-35 10 35 0 c19 0
51 -6 70 -14z m1159 -43 c-6 -16 -22 -37 -36 -46 -17 -12 -23 -13 -17 -4 9 16
58 79 61 79 1 0 -3 -13 -8 -29z m228 23 c-3 -3 -12 -4 -19 -1 -8 3 -5 6 6 6
11 1 17 -2 13 -5z m-1309 -11 c-10 -2 -26 -2 -35 0 -10 3 -2 5 17 5 19 0 27
-2 18 -5z m1357 -13 c3 -5 1 -10 -4 -10 -6 0 -11 5 -11 10 0 6 2 10 4 10 3 0
8 -4 11 -10z m-1720 -10 c-3 -5 -11 -10 -16 -10 -6 0 -7 5 -4 10 3 6 11 10 16
10 6 0 7 -4 4 -10z m1478 -89 c-76 -98 -88 -121 -89 -176 -1 -27 -9 -90 -18
-140 -9 -49 -16 -93 -16 -97 0 -5 -6 -8 -13 -8 -7 0 -21 -14 -31 -30 -10 -17
-24 -29 -33 -28 -9 2 -23 -10 -33 -27 -11 -20 -26 -31 -43 -33 -24 -3 -30 2
-48 42 -23 54 -39 266 -21 288 5 7 15 32 22 56 6 24 14 50 17 58 3 8 1 14 -5
14 -5 0 -15 -21 -22 -47 -7 -27 -18 -57 -24 -68 -14 -27 -13 -23 -15 -121 -1
-59 -4 -83 -12 -78 -12 7 -8 348 4 361 6 6 50 13 89 14 9 0 33 15 55 33 55 46
103 79 109 73 5 -5 -97 -84 -121 -93 -17 -7 -20 -24 -4 -24 6 0 23 8 37 18 15
10 44 29 65 41 l38 23 -17 -36 c-20 -41 -13 -57 15 -32 10 9 31 18 46 20 19 2
33 12 43 32 8 15 24 36 36 45 20 17 21 17 29 0 7 -14 -3 -33 -40 -80z m153 78
c3 -22 5 -23 14 -9 14 22 23 5 15 -28 -6 -28 -100 -182 -111 -182 -12 0 17
110 58 219 8 22 21 22 24 0z m-1352 5 c24 -9 19 -24 -8 -24 -13 0 -26 7 -30
15 -6 16 10 20 38 9z m181 -4 c18 -8 18 -9 -5 -9 -14 0 -34 4 -45 9 -18 8 -18
9 5 9 14 0 34 -4 45 -9z m761 -20 c-27 -17 -62 -34 -80 -37 -17 -3 -40 -14
-51 -24 -21 -18 -105 -42 -105 -30 0 12 49 55 56 49 5 -5 56 14 139 52 21 9
50 17 74 19 8 0 -7 -13 -33 -29z m-1400 11 c-3 -4 -11 -21 -17 -37 l-12 -29
-7 25 c-5 17 -2 29 8 38 18 14 36 16 28 3z m556 -2 c17 -9 18 -13 7 -20 -19
-12 -32 -11 -24 1 3 6 1 10 -4 10 -6 0 -11 5 -11 10 0 13 6 13 32 -1z m1340
-14 c0 -5 -5 -11 -11 -13 -6 -2 -11 4 -11 13 0 9 5 15 11 13 6 -2 11 -8 11
-13z m-1952 -9 c0 -3 -4 -8 -10 -11 -5 -3 -10 -1 -10 4 0 6 5 11 10 11 6 0 10
-2 10 -4z m440 -2 c0 -3 -7 -12 -15 -20 -12 -13 -15 -13 -15 -1 0 7 3 17 7 20
8 8 23 9 23 1z m1541 -31 c-5 -28 -14 -42 -39 -56 -33 -19 -43 -10 -17 17 8 8
15 17 15 21 0 9 34 54 41 55 3 0 3 -17 0 -37z m-1745 0 c-6 -15 -9 -15 -16 -3
-6 9 -5 17 3 22 16 10 21 2 13 -19z m292 -13 c4 -38 -7 -33 -26 13 -11 25 -10
28 5 25 12 -2 19 -14 21 -38z m1239 5 c-6 -19 -16 -35 -22 -35 -15 0 -43 -60
-51 -110 -6 -37 -28 -69 -40 -57 -10 9 58 164 88 201 16 20 31 36 33 36 2 0
-2 -16 -8 -35z m253 15 c0 -11 -4 -20 -10 -20 -5 0 -10 9 -10 20 0 11 5 20 10
20 6 0 10 -9 10 -20z m-1295 -8 c-3 -3 -11 0 -18 7 -9 10 -8 11 6 5 10 -3 15
-9 12 -12z m1358 3 c-3 -9 -8 -14 -10 -11 -3 3 -2 9 2 15 9 16 15 13 8 -4z
m-2093 2 c0 -2 -9 -14 -20 -27 -11 -13 -20 -18 -20 -12 0 6 7 18 16 26 15 15
24 20 24 13z m341 -77 c5 0 6 -12 3 -26 -5 -18 -3 -25 3 -21 7 4 14 -15 18
-51 10 -70 7 -105 -9 -138 l-13 -25 -6 28 c-3 16 -4 63 -3 105 2 42 -1 83 -5
90 -10 15 -12 6 -10 -57 1 -38 1 -39 -15 -20 -12 15 -14 33 -11 73 5 46 4 52
-9 41 -11 -9 -14 -7 -14 14 0 14 5 29 10 32 6 3 10 2 10 -3 0 -5 7 -9 15 -9 8
0 15 7 15 14 0 8 -4 11 -10 8 -5 -3 -10 -2 -10 4 0 5 6 11 13 14 8 2 13 -9 15
-35 2 -21 7 -38 13 -38z m134 -1 c14 -51 12 -58 -9 -36 -21 22 -38 75 -31 98
7 21 8 21 17 4 6 -10 16 -40 23 -66z m1831 66 c16 -12 16 -14 3 -15 -9 0 -22
7 -29 15 -16 19 0 19 26 0z m-1936 -21 c0 -8 -4 -12 -10 -9 -5 3 -10 13 -10
21 0 8 5 12 10 9 6 -3 10 -13 10 -21z m1783 20 c8 -9 -64 -61 -84 -61 -11 0
-16 10 -16 29 0 15 4 28 9 28 4 0 8 -12 8 -26 0 -30 17 -23 30 12 9 22 38 32
53 18z m-359 -43 c-4 -17 -9 -30 -11 -27 -3 2 -2 19 2 36 9 41 17 33 9 -9z
m-1385 2 c0 -25 -1 -26 -9 -8 -12 27 -12 35 0 35 6 0 10 -12 9 -27z m-258 -6
c-10 -9 -11 -8 -5 6 3 10 9 15 12 12 3 -3 0 -11 -7 -18z m86 1 c-3 -8 -6 -5
-6 6 -1 11 2 17 5 13 3 -3 4 -12 1 -19z m523 12 c0 -5 -5 -10 -11 -10 -5 0 -7
5 -4 10 3 6 8 10 11 10 2 0 4 -4 4 -10z m1403 -17 c-3 -10 -11 -22 -17 -28 -7
-5 -28 -37 -49 -71 -20 -33 -50 -77 -67 -98 -19 -25 -30 -50 -30 -70 0 -19
-10 -43 -26 -61 l-25 -30 6 30 c4 17 13 60 21 97 19 90 26 106 70 153 37 40
103 93 116 94 4 1 5 -7 1 -16z m-408 -60 c-1 -38 -10 -88 -19 -112 -9 -24 -16
-50 -16 -58 0 -7 -9 -26 -20 -41 -11 -15 -26 -56 -34 -91 -10 -44 -23 -72 -42
-89 l-26 -25 6 29 c3 16 10 62 16 102 14 105 30 160 46 166 15 6 13 -15 -7
-78 -5 -16 -9 -36 -8 -45 0 -22 58 159 58 185 1 19 40 124 46 124 2 0 2 -30 0
-67z m-1860 48 c3 -5 1 -12 -5 -16 -5 -3 -10 1 -10 9 0 18 6 21 15 7z m172
-58 c-2 -16 -4 -5 -4 22 0 28 2 40 4 28 2 -13 2 -35 0 -50z m162 11 c1 -12 -6
-27 -14 -34 -14 -11 -15 -7 -11 36 2 27 5 51 6 54 3 10 19 -35 19 -56z m244
-149 c-1 -55 2 -122 7 -150 4 -27 6 -52 4 -55 -3 -2 -15 8 -28 23 -13 15 -25
24 -28 22 -11 -12 -48 115 -47 160 0 13 5 8 13 -14 7 -19 18 -37 26 -39 8 -3
11 1 8 9 -3 8 -8 25 -12 39 -5 18 -5 21 3 10 17 -25 19 -8 7 70 -6 41 -10 82
-10 90 1 8 2 22 3 30 1 8 14 -10 28 -40 24 -49 27 -66 26 -155z m129 164 c-6
-38 -15 -37 -34 4 l-16 33 27 -4 c24 -3 27 -7 23 -33z m1399 10 c-5 -13 -10
-19 -10 -12 -1 15 10 45 15 40 3 -2 0 -15 -5 -28z m279 10 c0 -6 -4 -7 -10 -4
-5 3 -10 11 -10 16 0 6 5 7 10 4 6 -3 10 -11 10 -16z m-2100 3 c0 -5 -7 -17
-15 -28 -14 -19 -14 -19 -15 2 0 11 3 24 7 27 9 10 23 9 23 -1z m470 -8 c0 -8
5 -12 10 -9 7 4 8 -3 4 -21 -5 -19 -2 -30 9 -39 15 -11 15 -19 -2 -101 -26
-119 -25 -164 5 -227 13 -29 24 -59 24 -67 0 -9 15 -38 33 -66 38 -58 50 -84
38 -84 -12 0 -71 62 -71 75 0 5 -19 42 -42 80 l-42 70 -4 123 c-4 119 -3 124
17 129 26 7 26 15 1 38 -32 29 -23 115 12 115 4 0 8 -7 8 -16z m1033 -19 c-9
-19 -18 -33 -21 -31 -4 5 26 66 33 66 3 0 -3 -16 -12 -35z m-827 10 c19 -8 41
-12 48 -9 8 3 28 -15 51 -45 20 -28 41 -49 46 -45 5 3 0 19 -12 35 -12 17 -19
32 -17 35 3 2 22 -2 44 -9 36 -13 39 -17 44 -60 5 -40 4 -44 -11 -36 -10 5
-19 14 -22 21 -2 7 -7 10 -11 7 -11 -10 4 -36 30 -49 13 -7 24 -20 24 -27 0
-8 -5 -11 -11 -7 -12 7 -6 -180 10 -306 9 -70 5 -102 -10 -78 -5 7 -9 32 -9
54 0 26 -5 44 -13 47 -19 7 -41 118 -42 204 0 83 -17 94 -26 17 l-5 -49 -5 44
c-2 25 -9 46 -15 48 -15 5 -24 -43 -25 -136 0 -61 -2 -71 -10 -51 -6 14 -9 60
-7 103 3 76 -2 92 -20 61 -6 -10 -13 17 -21 85 -14 105 -35 133 -25 33 11
-117 79 -424 101 -462 11 -19 7 -17 -16 8 -16 18 -33 48 -36 65 -4 18 -17 82
-30 142 -13 61 -27 135 -30 165 -11 82 -27 99 -20 20 9 -82 9 -93 6 -160 l-2
-55 -20 27 c-11 15 -26 25 -34 22 -32 -13 -74 246 -45 281 12 14 15 14 36 0
26 -16 32 -8 12 14 -10 11 -10 14 -1 18 7 3 23 13 35 23 28 23 22 23 64 5z
m1072 -27 c-19 -24 -40 -54 -47 -66 -21 -40 -23 -17 -2 30 18 42 52 78 74 78
5 0 -6 -19 -25 -42z m401 33 c8 -5 11 -16 8 -25 -9 -24 -24 -19 -29 9 -6 27
-1 30 21 16z m-2300 -45 c-9 -8 -10 -7 -5 7 3 10 7 24 7 30 1 7 3 4 6 -7 3
-10 -1 -23 -8 -30z m77 18 c8 -31 0 -112 -12 -124 -5 -5 -10 26 -11 71 -3 77
10 106 23 53z m-238 -3 c-7 -11 -16 -17 -20 -15 -14 9 -9 22 10 27 9 3 18 5
20 6 1 0 -3 -8 -10 -18z m389 -3 c-3 -8 -6 -5 -6 6 -1 11 2 17 5 13 3 -3 4
-12 1 -19z m1711 -15 c-5 -20 -27 -57 -48 -82 -21 -25 -49 -68 -63 -96 -25
-48 -26 -49 -27 -19 0 17 13 51 31 80 31 49 109 154 114 154 2 0 -1 -17 -7
-37z m-1987 -19 c6 -8 4 -14 -5 -17 -15 -6 -26 28 -17 53 4 11 6 10 9 -5 2
-11 8 -25 13 -31z m419 -8 c0 -40 -8 -29 -15 20 -4 28 -3 35 4 24 6 -8 11 -28
11 -44z m1824 45 c7 -11 -15 -64 -44 -106 -11 -16 -20 -42 -20 -56 0 -32 -43
-81 -64 -73 -13 5 -12 12 5 57 34 85 80 176 92 181 19 7 25 7 31 -3z m-2454
-5 c0 -3 -5 -17 -10 -32 -8 -19 -14 -24 -21 -17 -7 7 -7 17 3 32 11 19 28 28
28 17z m757 -38 c-3 -7 -5 -2 -5 12 0 14 2 19 5 13 2 -7 2 -19 0 -25z m-341
-37 c5 -32 4 -42 -4 -37 -7 4 -12 14 -12 23 0 9 -2 14 -5 11 -8 -8 7 -68 15
-63 11 7 20 -21 20 -63 0 -32 19 -84 20 -57 0 6 7 -1 16 -15 14 -24 14 -24 12
20 -1 25 -7 57 -15 72 -19 38 -17 89 2 82 12 -5 15 2 15 30 0 20 5 36 10 36 6
0 10 -8 10 -18 0 -10 3 -22 7 -26 9 -9 14 -34 15 -81 0 -22 2 -32 5 -22 2 9 9
17 14 17 6 0 8 -9 4 -19 -3 -11 -1 -22 5 -26 16 -10 12 -25 -7 -25 -15 0 -15
-1 -1 -12 16 -13 41 -106 32 -120 -3 -4 2 -21 11 -37 20 -39 19 -52 -1 -23 -9
13 -18 39 -19 59 -2 19 -13 55 -25 80 -12 26 -18 54 -15 66 4 15 4 18 -3 9 -7
-10 -11 -5 -16 20 -3 19 -13 43 -21 54 -14 18 -14 17 -15 -14 0 -18 4 -31 8
-28 8 5 64 -154 61 -171 -1 -4 5 -24 13 -43 29 -67 30 -86 0 -37 -15 26 -31
45 -34 41 -16 -15 -125 173 -132 229 -3 18 -8 54 -11 81 -5 35 -3 51 7 57 18
12 26 0 34 -50z m2074 50 c0 -5 -9 -19 -20 -32 l-19 -24 12 33 c10 30 27 44
27 23z m-2615 -11 c-3 -5 -16 -15 -28 -21 -21 -10 -21 -9 2 10 25 23 36 27 26
11z m402 -2 c1 -7 4 -49 8 -93 5 -58 4 -76 -4 -65 -13 18 -13 3 -1 -25 5 -11
9 -14 9 -7 1 7 15 26 32 43 32 32 48 27 49 -12 0 -9 7 -19 15 -23 8 -3 15 -14
15 -25 0 -11 6 -22 13 -24 9 -4 9 -8 -2 -15 -9 -7 -10 -11 -2 -17 18 -11 61
-83 61 -101 0 -10 3 -14 7 -11 9 9 53 -33 53 -50 0 -22 -19 -15 -33 13 -9 17
-17 23 -21 15 -4 -6 -2 -11 5 -11 7 0 10 -3 7 -6 -4 -3 12 -22 34 -42 41 -37
76 -92 58 -92 -5 0 -10 6 -10 13 -1 15 -47 67 -82 90 -35 22 -41 22 -28 -2 5
-11 10 -30 10 -42 0 -20 -2 -21 -14 -9 -23 25 -38 82 -24 91 9 6 8 10 -4 14
-9 4 -20 20 -23 37 -4 16 -9 27 -12 24 -3 -3 0 -20 6 -37 8 -24 8 -34 0 -40
-8 -5 -7 -25 5 -73 18 -68 15 -91 -10 -82 -10 4 -14 0 -12 -11 6 -35 -19 -21
-47 27 -16 27 -31 48 -33 45 -3 -2 8 -25 23 -51 15 -25 23 -49 19 -53 -14 -12
-111 -51 -127 -51 -8 0 -36 19 -62 42 -30 26 -42 33 -34 19 8 -12 29 -31 47
-42 17 -12 32 -24 32 -28 0 -11 -47 -31 -70 -31 -21 0 -27 -15 -10 -25 6 -4 8
-11 5 -16 -3 -5 1 -6 9 -3 21 8 76 -23 70 -40 -10 -27 -86 -48 -99 -26 -3 5
-12 7 -20 3 -9 -3 -26 2 -40 11 -37 25 -44 19 -10 -9 42 -35 81 -56 90 -47 5
4 5 1 1 -5 -10 -17 -41 -16 -76 2 -16 8 -35 13 -42 10 -17 -6 -81 32 -73 45 3
5 28 -3 55 -17 28 -14 53 -23 57 -20 3 4 -10 13 -30 22 -33 14 -65 41 -34 29
8 -3 20 2 27 11 13 15 10 16 -34 10 -36 -6 -47 -5 -42 4 5 7 17 9 29 5 18 -5
15 0 -12 25 -18 17 -46 42 -61 55 -30 25 -104 113 -135 159 -20 31 -14 43 25
50 24 4 24 4 -2 6 -24 1 -28 5 -28 31 0 39 34 135 54 156 9 8 16 21 16 29 0 7
7 28 16 46 9 20 13 24 10 12 -2 -13 0 -26 5 -29 5 -3 9 6 9 20 0 28 24 36 34
11 3 -8 1 -15 -4 -15 -5 0 -2 -23 6 -50 8 -28 13 -54 10 -58 -3 -5 1 -26 9
-48 9 -23 14 -31 15 -19 1 18 2 18 16 -5 l15 -25 -7 25 c-3 14 -10 30 -15 35
-4 6 -11 38 -14 70 -3 33 -10 76 -16 95 -11 45 -12 73 0 66 5 -4 11 -1 13 6 7
21 36 -65 48 -147 13 -89 20 -108 30 -80 4 11 -2 46 -12 79 -21 68 -21 137 1
144 10 3 12 -2 7 -22 -4 -16 -2 -26 5 -26 15 0 39 26 39 43 0 9 11 13 35 13
20 -1 35 -6 35 -13 0 -7 7 -10 15 -7 8 4 15 18 15 33 l0 26 15 -29 c17 -32 56
-184 60 -234 4 -34 15 -57 15 -31 1 8 8 3 16 -11 8 -14 13 -17 10 -7 -3 10 -6
23 -6 28 0 5 -8 9 -17 10 -11 0 -13 3 -5 6 6 2 10 9 6 14 -9 15 8 10 29 -8 11
-10 4 4 -16 30 -35 45 -50 86 -27 72 6 -3 10 4 10 17 0 18 -2 20 -10 8 -9 -14
-14 -7 -11 13 1 4 -3 17 -9 27 -6 11 -7 20 -2 20 11 0 28 40 38 90 5 27 23 53
40 60 0 0 1 -6 1 -12z m543 -83 c0 -16 3 -55 6 -85 10 -81 -4 -56 -26 46 -10
49 -21 98 -25 109 -5 14 1 11 19 -10 15 -18 26 -42 26 -60z m-918 49 c-12 -8
-22 -21 -22 -27 -1 -15 -60 -85 -60 -70 0 39 45 104 80 115 24 8 25 -1 2 -18z
m63 -10 c3 -20 4 -39 1 -42 -3 -3 -6 6 -7 19 0 13 -3 18 -6 12 -8 -21 -23 -14
-23 10 0 49 25 50 35 1z m2075 -8 c-6 -19 -18 -40 -26 -46 -19 -16 -18 -11 7
45 23 53 37 54 19 1z m470 29 c-7 -8 -10 -25 -6 -40 4 -16 -1 -39 -14 -65 -25
-49 -26 -68 -3 -49 15 13 16 11 10 -24 -7 -47 8 -55 53 -32 18 9 33 15 34 13
1 -2 12 -26 25 -53 l22 -50 -33 -56 c-18 -31 -55 -102 -83 -157 -27 -56 -57
-103 -65 -105 -8 -1 -25 3 -37 11 -21 13 -22 15 -7 44 9 17 31 52 50 78 19 26
34 51 34 54 0 4 12 23 26 42 25 32 27 64 5 64 -20 0 -82 -64 -123 -127 -38
-59 -43 -63 -55 -47 -17 23 -16 29 2 44 16 13 21 40 7 40 -4 0 -13 -5 -19 -11
-14 -14 -24 2 -34 55 -11 60 8 142 37 161 23 15 23 15 18 -14 -8 -39 9 -47 57
-26 48 22 52 41 4 21 -33 -14 -35 -14 -35 5 0 11 6 35 14 54 20 47 109 184
120 185 5 0 3 -7 -4 -15z m-2391 -35 c0 -10 -3 -8 -9 5 -12 27 -12 43 0 25 5
-8 9 -22 9 -30z m338 18 c-3 -8 -6 -5 -6 6 -1 11 2 17 5 13 3 -3 4 -12 1 -19z
m1553 2 c-6 -11 -12 -20 -14 -20 -2 0 -2 9 1 20 3 11 9 20 15 20 5 0 4 -9 -2
-20z m619 10 c10 -5 21 -16 25 -25 4 -12 2 -13 -13 -6 -20 11 -47 41 -37 41 4
0 15 -4 25 -10z m125 -69 c5 -8 -12 2 -37 23 -26 21 -47 43 -47 48 0 12 71
-48 84 -71z m-2559 59 c3 -5 1 -10 -4 -10 -6 0 -11 5 -11 10 0 6 2 10 4 10 3
0 8 -4 11 -10z m21 -36 c-4 -20 -10 -34 -13 -30 -3 3 -2 21 1 42 4 20 10 34
13 30 3 -3 2 -21 -1 -42z m524 -40 c-12 -49 -12 -145 -1 -163 6 -10 15 -4 37
25 l29 37 12 -49 c6 -27 14 -60 18 -74 5 -19 2 -17 -14 10 l-20 35 0 -30 c0
-16 3 -47 8 -68 l9 -39 -25 24 c-52 48 -62 72 -72 171 -5 53 -7 122 -4 153 6
53 7 55 19 32 9 -17 10 -36 4 -64z m-701 21 l-14 -37 -6 32 c-4 20 -3 38 4 46
21 22 30 -3 16 -41z m749 -30 c9 -53 7 -65 -11 -100 -17 -34 -21 -37 -27 -21
-7 21 -4 86 7 146 3 19 5 40 4 45 -2 7 1 7 7 0 5 -5 14 -37 20 -70z m738 -122
c7 -72 -10 -198 -26 -188 -4 3 -11 37 -14 76 -6 59 -5 74 10 90 16 17 16 19 0
25 -12 5 -16 14 -12 33 3 14 8 53 12 86 l8 60 7 -55 c4 -30 11 -87 15 -127z
m-1436 157 c0 -5 -4 -10 -10 -10 -5 0 -10 5 -10 10 0 6 5 10 10 10 6 0 10 -4
10 -10z m-286 -15 c-4 -8 -8 -15 -10 -15 -2 0 -4 7 -4 15 0 8 4 15 10 15 5 0
7 -7 4 -15z m149 -5 c3 -11 1 -18 -4 -14 -5 3 -9 12 -9 20 0 20 7 17 13 -6z
m2196 -32 c-11 -29 -23 -62 -26 -73 -8 -25 -53 -93 -53 -79 0 6 3 14 7 18 9 9
43 116 43 137 0 13 32 45 47 48 2 1 -6 -23 -18 -51z m-1819 26 c0 -8 -4 -12
-10 -9 -5 3 -10 10 -10 16 0 5 5 9 10 9 6 0 10 -7 10 -16z m-574 -11 c-2 -9
-11 -18 -20 -19 -10 -1 -28 -11 -40 -21 -12 -10 -5 -1 17 20 45 42 46 43 43
20z m1174 -55 c0 -29 -4 -38 -16 -38 -14 0 -15 7 -10 38 3 20 6 44 6 52 1 35
20 -16 20 -52z m1695 41 c-8 -12 -35 -12 -35 0 0 11 22 20 33 14 4 -2 5 -9 2
-14z m-2825 1 c0 -5 -5 -10 -11 -10 -5 0 -7 5 -4 10 3 6 8 10 11 10 2 0 4 -4
4 -10z m62 -22 c-7 -7 -12 -8 -12 -2 0 14 12 26 19 19 2 -3 -1 -11 -7 -17z
m2434 -23 c-4 -14 -14 -25 -23 -25 -9 0 -26 -8 -37 -17 l-21 -18 21 25 c11 14
29 38 39 55 20 32 31 21 21 -20z m-2470 -2 c-8 -15 -15 -22 -16 -15 0 17 20
55 27 49 2 -3 -2 -18 -11 -34z m784 9 c0 -15 -2 -15 -10 -2 -13 20 -13 33 0
25 6 -3 10 -14 10 -23z m1931 -5 c-8 -8 -11 -7 -11 4 0 20 13 34 18 19 3 -7
-1 -17 -7 -23z m195 3 c49 -40 79 -86 143 -223 40 -86 56 -127 46 -127 -14 0
-85 131 -85 156 0 33 -74 144 -96 144 -6 0 -30 -20 -52 -44 l-40 -43 -27 57
c-26 54 -27 80 -4 80 5 0 9 -7 9 -16 0 -25 25 -10 28 17 4 33 37 32 78 -1z
m-2990 -18 c-8 -25 -45 -72 -56 -72 -4 0 -6 10 -3 23 4 18 3 19 -7 7 -10 -13
-11 -13 -7 0 2 8 9 14 14 13 5 -1 21 11 34 26 27 32 34 33 25 3z m843 -22
c-10 -7 -10 -11 0 -24 7 -8 18 -13 25 -10 12 4 56 -78 56 -103 0 -5 13 -30 30
-56 25 -40 28 -49 14 -54 -9 -3 -14 -13 -11 -24 3 -11 2 -17 -2 -14 -16 9 -88
110 -94 130 -3 11 -13 45 -21 75 -17 60 -12 138 7 105 6 -12 6 -20 -4 -25z
m1385 -64 c-27 -81 -41 -98 -23 -30 11 45 41 116 45 111 2 -2 -8 -38 -22 -81z
m-2178 48 c-3 -9 -6 -21 -7 -27 0 -7 -4 -3 -8 8 -9 22 -5 35 11 35 5 0 7 -7 4
-16z m-150 -82 c-25 -25 -33 30 -9 61 l18 25 3 -35 c2 -22 -2 -42 -12 -51z
m95 61 c-12 -20 -14 -14 -5 12 4 9 9 14 11 11 3 -2 0 -13 -6 -23z m2508 -37
c-13 -52 -26 -60 -31 -18 -2 17 4 36 16 49 26 31 29 24 15 -31z m32 17 c-12
-20 -14 -14 -5 12 4 9 9 14 11 11 3 -2 0 -13 -6 -23z m-2514 -5 c-3 -8 -6 -5
-6 6 -1 11 2 17 5 13 3 -3 4 -12 1 -19z m2968 -58 c-9 -28 -19 -50 -23 -50
-11 0 -42 33 -42 46 0 7 17 30 37 51 30 31 37 35 41 20 2 -9 -4 -40 -13 -67z
m-3135 55 c-8 -10 -9 -15 -2 -15 6 0 9 -7 6 -15 -8 -21 -21 -19 -19 3 1 19 13
42 22 42 3 0 0 -7 -7 -15z m88 -20 c-6 -14 -13 -23 -15 -21 -5 5 15 46 22 46
3 0 -1 -11 -7 -25z m1899 3 c-3 -8 -6 -5 -6 6 -1 11 2 17 5 13 3 -3 4 -12 1
-19z m1203 -20 c0 -9 -48 -88 -54 -88 -2 0 2 17 10 38 7 20 13 51 14 67 1 29
1 29 15 11 8 -11 15 -24 15 -28z m-960 11 c0 -5 -4 -9 -10 -9 -5 0 -10 7 -10
16 0 8 5 12 10 9 6 -3 10 -10 10 -16z m330 6 c-7 -9 -15 -13 -17 -11 -7 7 7
26 19 26 6 0 6 -6 -2 -15z m-2407 -30 c-7 -21 -12 -19 -10 4 0 11 5 18 9 15 4
-3 5 -11 1 -19z m2447 -5 c-6 -12 -14 -19 -17 -17 -2 3 1 15 7 27 6 12 14 19
17 17 2 -3 -1 -15 -7 -27z m-858 -22 c-6 -6 -7 0 -4 19 5 21 7 23 10 9 2 -10
0 -22 -6 -28z m125 10 c-3 -7 -5 -2 -5 12 0 14 2 19 5 13 2 -7 2 -19 0 -25z
m-1742 -76 c-5 -14 -7 -14 -15 -2 -13 21 -12 57 3 83 11 20 12 19 15 -22 2
-24 0 -51 -3 -59z m-65 69 c0 -11 -4 -23 -10 -26 -5 -3 -10 -17 -10 -31 0 -13
-4 -24 -10 -24 -13 0 -13 15 1 63 11 39 29 50 29 18z m2127 -3 c-3 -8 -6 -5
-6 6 -1 11 2 17 5 13 3 -3 4 -12 1 -19z m353 -18 c-6 -12 -14 -20 -17 -17 -2
3 1 14 8 26 7 11 15 18 17 16 2 -2 -2 -13 -8 -25z m-2567 -14 c-3 -4 -9 -3
-13 3 -12 20 -33 -16 -32 -54 1 -19 -7 -43 -18 -58 -21 -27 -26 -42 -11 -32
14 8 -18 -92 -46 -145 -7 -14 -13 -47 -14 -75 0 -47 -27 -141 -28 -103 -2 39
23 166 41 211 10 26 16 52 13 56 -7 13 5 42 16 35 5 -3 9 0 9 5 0 6 -4 11 -9
11 -13 0 -2 70 16 98 7 12 11 28 7 34 -4 7 -3 8 4 4 6 -4 18 4 27 18 13 20 19
23 30 13 7 -7 11 -16 8 -21z m1614 -13 c-3 -10 -5 -2 -5 17 0 19 2 27 5 18 2
-10 2 -26 0 -35z m1627 23 c8 -32 -1 -54 -25 -61 -40 -13 -44 11 -11 63 18 28
28 28 36 -2z m147 2 c11 -21 11 -22 -4 -9 -10 7 -17 17 -17 22 0 15 9 10 21
-13z m-1381 -10 c0 -18 -2 -20 -9 -8 -6 8 -7 18 -5 22 9 14 14 9 14 -14z m278
2 c-7 -10 -14 -17 -17 -15 -4 4 18 35 25 35 2 0 -1 -9 -8 -20z m641 -17 c-13
-21 -42 -68 -66 -104 -24 -36 -43 -71 -43 -78 0 -6 -4 -11 -10 -11 -23 0 5 68
64 150 56 79 96 110 55 43z m176 -47 c-8 -72 -30 -129 -47 -124 -20 7 -21 44
-2 122 21 87 22 90 41 74 12 -10 14 -25 8 -72z m-1232 -56 l-25 -25 7 60 c10
98 17 107 31 45 12 -54 12 -56 -13 -80z m444 108 c-3 -8 -6 -5 -6 6 -1 11 2
17 5 13 3 -3 4 -12 1 -19z m90 0 c-3 -8 -6 -5 -6 6 -1 11 2 17 5 13 3 -3 4
-12 1 -19z m-1150 -86 c26 -37 5 -39 -32 -2 -18 19 -37 49 -40 65 l-7 30 32
-35 c17 -19 38 -45 47 -58z m1331 58 c-22 -30 -35 -41 -22 -17 9 16 36 47 41
47 2 0 -6 -13 -19 -30z m-388 12 c0 -5 -14 -21 -31 -38 -30 -28 -31 -28 -19
-4 7 14 17 31 23 38 11 14 27 16 27 4z m-81 -43 c-20 -29 -23 -30 -30 -13 -11
29 -10 34 5 28 8 -3 20 1 27 9 24 26 22 10 -2 -24z m238 9 c-3 -7 -5 -2 -5 12
0 14 2 19 5 13 2 -7 2 -19 0 -25z m-2267 -15 c0 -34 -1 -35 -14 -17 -8 10 -10
21 -5 22 5 2 9 10 9 18 0 8 2 14 5 14 3 0 5 -17 5 -37z m990 -6 c0 -6 -9 0
-20 13 -11 13 -20 25 -20 28 0 3 9 -3 20 -13 11 -10 20 -23 20 -28z m547 21
c-3 -8 -6 -5 -6 6 -1 11 2 17 5 13 3 -3 4 -12 1 -19z m170 -45 c-2 -16 -4 -5
-4 22 0 28 2 40 4 28 2 -13 2 -35 0 -50z m239 22 c6 -19 8 -35 3 -35 -5 0 -11
0 -14 0 -8 0 -24 64 -18 73 7 12 15 2 29 -38z m357 8 c-8 -56 -22 -75 -17 -25
3 41 10 62 19 62 2 0 1 -17 -2 -37z m-2263 1 c0 -8 -4 -14 -9 -14 -4 0 -5 -19
0 -42 11 -60 10 -66 -6 -44 -23 31 -18 135 6 120 5 -3 9 -12 9 -20z m37 -1
c-3 -3 -11 -2 -17 2 -9 6 -9 10 1 16 14 8 27 -7 16 -18z m2073 -3 c7 -17 11
-32 9 -34 -2 -2 -28 -6 -58 -10 l-55 -7 40 40 c21 23 42 41 45 41 4 0 12 -14
19 -30z m788 -27 c-6 -29 -8 -63 -4 -76 14 -59 67 -30 88 47 8 30 18 46 32 50
31 8 31 1 -2 -41 -41 -52 -129 -224 -138 -267 -7 -38 -24 -50 -24 -16 0 10 -8
23 -17 29 -16 9 -16 11 -2 28 26 29 41 63 29 63 -6 0 -23 -20 -38 -45 -15 -25
-34 -45 -43 -45 -13 0 -15 8 -8 53 4 28 11 61 16 72 10 25 117 205 119 202 1
-1 -2 -25 -8 -54z m-334 2 c-23 -36 -29 -24 -8 17 9 18 19 28 21 21 2 -6 -3
-23 -13 -38z m-702 0 c5 -41 -7 -47 -15 -8 -5 25 -2 43 7 43 2 0 6 -16 8 -35z
m593 8 c-34 -53 -45 -67 -45 -60 0 19 45 87 58 87 2 0 -4 -12 -13 -27z m-1397
-8 c6 -14 10 -25 8 -25 -2 0 -11 11 -20 25 -9 14 -13 25 -8 25 5 0 14 -11 20
-25z m-1035 -2 c5 -16 3 -57 -3 -73 -3 -9 -18 44 -19 68 -1 26 16 30 22 5z
m-272 -20 c-12 -20 -14 -14 -5 12 4 9 9 14 11 11 3 -2 0 -13 -6 -23z m199 -20
c8 -27 14 -52 14 -58 1 -5 7 -11 14 -11 6 -1 19 -2 27 -3 8 0 15 -5 15 -10 0
-11 -35 -20 -48 -12 -16 11 -52 89 -52 116 0 41 17 29 30 -22z m1251 30 c13
-16 12 -17 -3 -4 -17 13 -22 21 -14 21 2 0 10 -8 17 -17z m1322 -18 c-3 -19
-2 -42 2 -52 9 -21 12 -29 14 -43 2 -16 37 -12 52 6 11 14 14 13 26 -10 8 -14
18 -26 24 -26 5 0 14 -11 19 -25 5 -14 14 -25 19 -25 5 0 15 -16 21 -35 6 -19
16 -35 21 -35 6 0 17 -6 25 -14 7 -8 19 -16 25 -18 9 -3 9 -10 -1 -28 -7 -14
-14 -27 -16 -29 -2 -2 -19 10 -39 28 -19 17 -46 33 -60 37 -14 3 -34 22 -46
41 -48 77 -108 83 -63 6 31 -53 22 -49 -64 28 l-50 46 38 50 c25 34 35 54 28
61 -6 6 -4 20 6 41 21 40 26 39 19 -4z m-1670 -35 c6 0 8 -2 6 -5 -8 -8 -84
23 -83 34 1 6 2 15 3 20 0 5 15 -4 32 -20 17 -16 36 -29 42 -29z m2210 -3 c-8
-16 -29 -52 -47 -81 -34 -53 -106 -205 -106 -224 0 -16 -14 -22 -28 -13 -10 6
-10 19 -2 57 14 60 102 240 142 289 28 33 31 35 43 18 11 -15 11 -23 -2 -46z
m-2323 43 c0 -5 -2 -10 -4 -10 -3 0 -8 5 -11 10 -3 6 -1 10 4 10 6 0 11 -4 11
-10z m1645 -17 c-4 -16 -11 -44 -14 -63 l-6 -35 -22 22 c-13 13 -20 29 -17 38
4 9 9 13 12 10 3 -3 13 9 23 25 23 37 33 39 24 3z m-2514 -10 c-12 -20 -14
-14 -5 12 4 9 9 14 11 11 3 -2 0 -13 -6 -23z m1899 13 c0 -16 -27 -46 -41 -46
-5 0 0 14 13 30 25 34 28 36 28 16z m351 -15 c-17 -11 -111 -22 -122 -15 -21
13 -5 22 54 31 61 9 96 1 68 -16z m1009 19 c0 -5 -2 -10 -4 -10 -3 0 -8 5 -11
10 -3 6 -1 10 4 10 6 0 11 -4 11 -10z m-3405 -71 c-8 -19 -13 -25 -9 -14 3 11
8 34 12 50 3 17 8 23 10 14 1 -9 -4 -32 -13 -50z m343 1 c11 -8 43 -72 38 -77
-9 -10 -76 69 -76 91 0 33 13 41 23 14 4 -12 11 -25 15 -28z m2122 35 c0 -9
-12 -20 -26 -25 -33 -13 -47 -13 -39 0 4 6 10 8 14 6 4 -3 14 4 21 15 17 23
30 25 30 4z m931 -23 c-6 -2 -11 -10 -11 -18 0 -11 7 -13 27 -8 l27 7 -23 -31
c-12 -18 -28 -35 -35 -39 -23 -14 -133 -170 -152 -217 -20 -50 -41 -56 -36
-11 6 51 43 134 87 194 29 39 43 67 39 78 -4 13 -3 14 3 5 8 -10 12 -10 22 2
7 8 10 20 6 25 -3 6 -1 20 5 32 11 20 12 20 32 3 11 -11 15 -20 9 -22z m-2369
-4 c-7 -7 -12 -8 -12 -2 0 14 12 26 19 19 2 -3 -1 -11 -7 -17z m-762 -79 c55
-55 116 -131 113 -141 -2 -4 3 -5 11 -2 18 7 23 -1 30 -49 7 -41 1 -42 -41 -4
-13 11 -23 16 -23 11 0 -5 9 -15 21 -22 20 -13 20 -14 2 -28 -17 -13 -16 -14
9 -8 18 4 33 1 43 -10 9 -9 21 -16 28 -16 6 0 2 7 -9 15 -24 18 -9 19 67 5 30
-6 69 -11 87 -12 36 -1 44 -17 10 -19 -13 -1 -34 -3 -48 -6 -64 -11 -208 -5
-259 11 -61 18 -85 20 -77 7 3 -5 26 -12 51 -15 29 -5 43 -11 39 -18 -5 -8 2
-9 22 -5 16 3 42 -1 59 -9 30 -13 29 -14 -23 -11 -28 1 -52 -1 -52 -5 0 -5 13
-8 29 -8 35 0 91 -19 91 -31 0 -5 11 -9 25 -9 14 0 25 -4 25 -8 0 -14 -121
-72 -151 -72 -15 0 -30 -4 -33 -9 -3 -4 -35 -11 -70 -15 -48 -5 -75 -3 -102 9
-36 15 -69 11 -43 -6 11 -7 10 -9 -3 -9 -10 0 -18 5 -18 12 0 9 -3 9 -11 1 -8
-8 3 -26 43 -65 30 -30 59 -53 66 -50 7 2 -6 17 -28 33 -64 46 -50 66 35 50
27 -5 51 -14 53 -20 2 -6 10 -11 18 -11 19 0 18 -16 -1 -24 -8 -3 -15 -12 -15
-21 0 -19 5 -19 35 1 24 16 89 11 101 -7 9 -15 -23 -21 -48 -9 -21 10 -21 10
-5 -3 9 -8 17 -19 17 -25 0 -6 7 -9 15 -6 8 3 23 -1 35 -9 20 -14 19 -16 -46
-76 -60 -55 -71 -61 -109 -61 -25 0 -48 6 -54 14 -15 18 -75 40 -65 25 3 -6
20 -17 38 -25 37 -16 12 -19 -32 -3 -30 10 -52 39 -30 39 7 0 5 7 -4 18 -9 9
-20 37 -26 62 -5 25 -13 54 -17 65 -8 19 -7 19 16 -2 29 -26 95 -63 112 -63 6
0 -11 12 -38 26 -60 32 -85 52 -85 71 0 7 -5 13 -11 13 -6 0 -8 -7 -5 -16 4
-11 1 -14 -12 -12 -14 3 -17 14 -17 70 1 82 -14 76 -18 -8 -2 -33 -7 -66 -11
-73 -4 -6 -5 -18 -2 -26 9 -24 -4 -17 -14 8 -7 16 -8 11 -3 -21 5 -35 2 -46
-13 -57 -24 -18 -37 -19 -31 -2 2 6 10 11 16 9 13 -3 14 10 2 24 -11 11 -3 64
10 64 5 0 7 12 4 28 l-6 27 13 -28 c12 -26 13 -21 15 60 2 79 1 86 -12 69 -15
-20 -20 -10 -9 18 3 9 10 14 14 11 4 -3 11 10 14 28 l7 32 13 -24 c7 -13 11
-32 8 -43 -3 -13 0 -17 11 -12 10 3 17 -2 21 -14 4 -11 15 -22 26 -25 13 -3
17 -1 13 9 -3 7 -9 12 -13 11 -12 -3 -70 111 -70 137 0 11 11 33 23 47 17 18
26 42 31 88 4 34 16 77 27 94 l19 32 0 -45 c0 -25 3 -62 7 -83 l6 -39 13 39
c8 21 19 67 26 103 6 36 14 57 16 48 2 -10 8 -18 14 -18 5 0 8 7 5 14 -4 10
-1 13 9 9 7 -3 14 -9 14 -14 0 -5 5 -9 11 -9 5 0 7 5 3 12 -4 6 -8 23 -9 38
-1 14 -6 37 -9 50 l-8 25 19 -26 c10 -14 38 -46 63 -70z m1295 81 c7 -12 -2
-12 -30 0 -19 8 -19 9 2 9 12 1 25 -3 28 -9z m957 -19 c-3 -22 -8 -28 -23 -24
-17 5 -17 6 -1 29 23 31 29 30 24 -5z m-2018 -133 c-4 -5 -23 6 -45 28 -54 53
-49 35 6 -22 44 -45 56 -76 15 -39 -11 10 -20 13 -20 7 0 -7 5 -12 10 -12 6 0
10 -4 10 -10 0 -5 -8 -10 -17 -10 -13 0 -14 -3 -5 -12 17 -17 15 -28 -5 -22
-10 3 -7 -2 7 -10 14 -9 51 -23 83 -32 58 -17 75 -34 34 -34 -41 0 -90 19
-118 46 -16 15 -26 30 -24 35 3 4 -17 26 -44 48 -48 41 -89 113 -79 142 2 7
34 -18 73 -57 41 -41 59 -55 44 -34 -13 19 -26 46 -28 60 -2 14 -10 38 -18 54
-10 19 9 5 56 -43 39 -40 69 -77 65 -83z m1651 123 c-3 -6 -11 -11 -17 -11 -6
0 -6 6 2 15 14 17 26 13 15 -4z m300 9 c-3 -5 -12 -10 -18 -10 -7 0 -6 4 3 10
19 12 23 12 15 0z m249 -15 c-9 -14 -19 -23 -22 -20 -5 4 26 45 35 45 2 0 -4
-11 -13 -25z m-2565 -57 c-9 -53 -19 -76 -19 -41 0 45 13 114 20 103 4 -6 3
-34 -1 -62z m50 40 l11 -33 -20 24 c-11 12 -17 27 -14 32 8 14 11 11 23 -23z
m791 18 c0 -8 -7 -16 -15 -20 -13 -4 -14 -2 -5 14 13 23 20 26 20 6z m2679
-26 l23 -35 -26 28 c-14 15 -26 33 -26 39 0 13 0 14 29 -32z m-3562 8 c-3 -8
-6 -5 -6 6 -1 11 2 17 5 13 3 -3 4 -12 1 -19z m1173 12 c0 -5 -8 -10 -17 -10
-15 0 -16 2 -3 10 19 12 20 12 20 0z m60 -10 c12 -8 11 -10 -7 -10 -13 0 -23
5 -23 10 0 13 11 13 30 0z m2121 -7 c-5 -10 -33 -40 -63 -68 -51 -48 -37 -28
36 53 34 36 41 40 27 15z m-3470 -25 c-3 -21 -6 -26 -9 -15 -3 17 3 47 11 47
2 0 1 -15 -2 -32z m3601 -39 c25 -33 27 -40 30 -172 l3 -138 -40 7 c-39 6
-119 46 -131 66 -4 5 11 28 32 51 31 32 33 36 10 18 -16 -12 -36 -31 -43 -41
-14 -19 -63 -28 -63 -12 0 14 147 154 153 146 2 -5 1 -34 -4 -64 -11 -76 -11
-112 0 -106 5 3 12 34 16 68 4 34 12 70 18 79 9 15 6 28 -38 154 -7 19 -6 19
12 -1 10 -12 30 -37 45 -55z m-1292 46 c-46 -18 -64 -17 -25 0 17 8 37 14 45
14 8 0 -1 -7 -20 -14z m95 5 c-11 -5 -27 -9 -35 -9 -9 0 -8 4 5 9 11 5 27 9
35 9 9 0 8 -4 -5 -9z m220 0 c-3 -5 -10 -10 -16 -10 -5 0 -9 5 -9 10 0 6 7 10
16 10 8 0 12 -4 9 -10z m914 -23 c0 -21 -1 -21 -9 -2 -12 28 -12 37 0 30 6 -3
10 -16 9 -28z m75 17 c11 -28 6 -38 -9 -18 -8 10 -15 22 -15 27 0 13 18 7 24
-9z m-2744 2 c0 -2 -7 -7 -16 -10 -8 -3 -12 -2 -9 4 6 10 25 14 25 6z m2652
-46 l16 -51 -86 -84 c-48 -46 -89 -81 -91 -79 -3 2 8 18 24 34 36 37 28 49 -9
15 -27 -25 -27 -25 -20 -3 3 13 26 54 50 91 24 37 44 71 44 75 0 11 39 52 48
52 5 0 15 -23 24 -50z m-3395 -7 c-3 -10 -5 -2 -5 17 0 19 2 27 5 18 2 -10 2
-26 0 -35z m853 42 c0 -9 -64 -45 -80 -45 -23 1 37 50 61 50 10 0 19 -2 19 -5z
m1530 -55 c32 -82 33 -89 13 -85 -45 9 -153 13 -153 6 0 -13 74 -31 128 -31
58 0 53 8 73 -110 6 -36 14 -127 18 -202 7 -154 21 -197 21 -63 0 107 6 108
12 2 4 -65 2 -80 -12 -90 -9 -7 -23 -36 -31 -66 -13 -48 -19 -54 -52 -66 -20
-7 -37 -9 -37 -5 0 4 19 26 42 49 27 27 38 45 31 52 -6 6 -42 -23 -103 -83
l-94 -93 -93 2 c-98 2 -136 14 -127 38 4 11 -4 19 -25 26 -18 6 -31 13 -29 15
2 1 48 13 101 24 133 29 269 81 254 97 -3 2 -38 -9 -78 -25 -71 -29 -125 -43
-291 -77 -43 -9 -81 -21 -84 -27 -5 -8 3 -9 24 -5 25 5 34 2 47 -15 8 -12 25
-28 37 -36 21 -12 20 -13 -17 -8 -22 3 -48 6 -58 6 -10 0 -33 16 -51 35 -19
19 -38 35 -45 35 -7 0 -11 19 -11 49 0 98 -34 68 -75 -66 -28 -91 -29 -93 -69
-107 -23 -8 -48 -15 -56 -15 -8 0 -40 -7 -70 -16 -54 -15 -247 -35 -256 -26
-12 13 -44 10 -44 -4 0 -12 -13 -15 -60 -15 -33 0 -60 4 -60 10 0 6 -5 10 -11
10 -6 0 -9 -7 -5 -15 3 -8 1 -15 -4 -15 -6 0 -10 10 -10 21 0 21 3 21 60 16
37 -4 60 -3 60 3 0 14 -112 20 -147 9 -14 -5 -25 -3 -33 6 -16 20 -40 128 -31
138 10 10 201 10 225 1 9 -3 16 -1 16 5 0 6 -1 11 -2 11 -2 1 -51 3 -111 7
-76 4 -111 2 -122 -7 -20 -16 -26 14 -23 112 2 43 -1 74 -6 71 -5 -4 -6 0 -1
6 4 7 2 47 -5 87 -10 59 -10 84 -1 117 26 91 42 115 95 143 47 25 113 60 195
106 38 22 104 45 141 50 14 2 24 9 23 16 -2 9 18 12 71 12 64 0 74 -2 72 -17
-1 -12 19 -27 61 -48 l62 -30 1 -65 c0 -77 8 -110 25 -110 8 0 15 -24 19 -70
7 -70 21 -95 37 -69 5 9 9 -17 9 -68 0 -45 4 -84 9 -88 18 -11 22 35 11 135
-13 115 -7 172 26 245 17 40 31 56 61 70 21 10 83 39 138 65 62 30 121 50 155
54 l55 7 -90 -47 c-49 -25 -96 -51 -103 -57 -7 -5 -22 -11 -35 -12 -37 -5
-113 -42 -136 -66 -36 -39 -25 -54 14 -20 20 17 39 31 43 32 30 3 57 15 162
73 65 36 122 66 125 66 4 0 19 9 34 19 29 21 61 29 105 27 24 -1 31 -8 46 -46z
m125 17 c-6 -14 -8 -14 -24 1 -15 15 -15 18 -1 23 20 9 32 -3 25 -24z m1051
-9 c23 -36 24 -42 10 -50 -20 -11 -21 -92 -2 -164 12 -47 12 -52 -6 -63 -21
-13 -20 -14 -37 54 -11 39 -14 202 -4 178 4 -12 33 -19 33 -9 0 2 -9 25 -20
50 -24 57 -9 60 26 4z m-2471 22 c-3 -5 -11 -10 -16 -10 -6 0 -7 5 -4 10 3 6
11 10 16 10 6 0 7 -4 4 -10z m1510 -27 c22 -21 70 -59 105 -85 34 -27 59 -48
54 -48 -12 0 -56 30 -70 48 -6 8 -32 22 -59 31 -40 13 -50 22 -57 45 -4 16
-13 33 -20 37 -7 5 -9 9 -4 9 5 0 28 -17 51 -37z m-1865 17 c0 -5 -2 -10 -4
-10 -3 0 -8 5 -11 10 -3 6 -1 10 4 10 6 0 11 -4 11 -10z m2170 0 c0 -5 -4 -10
-10 -10 -5 0 -10 5 -10 10 0 6 5 10 10 10 6 0 10 -4 10 -10z m-2220 -7 c0 -1
-9 -7 -19 -12 -13 -8 -22 -7 -29 2 -8 9 -3 12 19 12 16 0 29 -1 29 -2z m2737
-15 c-3 -8 -6 -5 -6 6 -1 11 2 17 5 13 3 -3 4 -12 1 -19z m-1778 -8 c23 -6 41
-15 41 -20 0 -10 -69 12 -98 30 -15 10 -15 11 0 6 9 -3 35 -10 57 -16z m386
11 c-6 -5 -21 -11 -35 -15 -21 -5 -20 -3 5 9 35 17 42 18 30 6z m-1295 -21
c-27 -21 -51 -22 -57 -3 -4 11 19 19 62 21 18 1 18 0 -5 -18z m90 16 c0 -2 -8
-10 -17 -17 -16 -13 -17 -12 -4 4 13 16 21 21 21 13z m1670 -27 c0 -5 -4 -9
-10 -9 -5 0 -10 7 -10 16 0 8 5 12 10 9 6 -3 10 -10 10 -16z m-1231 7 c-7 -7
-241 -136 -246 -136 -34 0 196 135 236 139 8 0 12 -1 10 -3z m2013 -9 c-6 -7
-29 -50 -51 -95 -30 -60 -49 -86 -72 -97 -30 -16 -31 -16 -24 5 4 12 15 30 24
39 10 10 33 40 51 67 34 51 70 94 78 94 2 0 0 -6 -6 -13z m-2495 -12 c0 -8
-16 -19 -36 -25 -20 -6 -46 -16 -58 -22 -13 -6 -25 -9 -28 -6 -3 2 23 19 57
36 35 17 63 31 64 32 0 0 1 -7 1 -15z m333 11 c0 -3 -13 -11 -30 -20 -16 -8
-30 -10 -30 -5 0 5 10 14 23 19 25 10 37 12 37 6z m1675 -36 c27 -43 33 -67 9
-35 -20 26 -46 75 -39 75 2 0 16 -18 30 -40z m-2784 -7 c-10 -17 -10 -16 -11
3 0 23 13 41 18 25 2 -6 -1 -18 -7 -28z m1020 -6 c-10 -9 -11 -8 -5 6 3 10 9
15 12 12 3 -3 0 -11 -7 -18z m1505 1 c-3 -13 -6 -31 -6 -41 0 -10 -4 -16 -8
-13 -11 7 -2 76 10 76 6 0 8 -10 4 -22z m477 -34 c9 -52 -7 -159 -23 -149 -5
3 -16 28 -25 55 -15 47 -15 53 0 101 9 28 22 48 28 46 7 -2 16 -26 20 -53z
m217 52 c0 -2 -8 -10 -17 -17 -16 -13 -17 -12 -4 4 13 16 21 21 21 13z m-2233
-43 c-9 -9 -20 -14 -24 -10 -3 4 2 14 13 21 25 19 33 10 11 -11z m2613 -40
c15 -77 15 -76 2 -81 -10 -3 -32 81 -32 123 0 48 16 24 30 -42z m-3025 47 c-3
-5 -12 -7 -20 -3 -21 7 -19 13 6 13 11 0 18 -4 14 -10z m191 -35 c-4 -14 -11
-25 -17 -25 -8 0 -8 4 0 13 8 11 7 13 -7 12 -9 0 -23 -5 -31 -9 -9 -6 -12 -4
-9 5 2 8 17 15 31 17 15 2 27 8 27 14 0 6 3 9 6 5 4 -3 4 -18 0 -32z m2126 -2
c11 -11 15 -27 11 -41 -7 -28 -19 -20 -40 26 -9 20 -19 41 -21 45 -7 14 31 -9
50 -30z m-2487 17 c3 -6 -1 -7 -9 -4 -18 7 -21 14 -7 14 6 0 13 -4 16 -10z
m417 -32 c-7 -7 -12 -8 -12 -2 0 14 12 26 19 19 2 -3 -1 -11 -7 -17z m-977
-40 c-4 -77 -17 -148 -26 -142 -5 3 -7 9 -4 14 3 5 5 39 6 77 0 37 3 76 5 86
9 31 21 9 19 -35z m505 36 c0 -14 -3 -14 -15 -4 -8 7 -15 14 -15 16 0 2 7 4
15 4 8 0 15 -7 15 -16z m2483 -40 c51 -63 47 -78 -8 -24 -25 24 -45 50 -45 57
0 22 14 13 53 -33z m-1843 27 c0 -4 -8 -11 -18 -17 -9 -6 -18 -22 -20 -35 -1
-13 -6 -37 -12 -54 -8 -24 -9 -16 -4 35 3 36 10 67 15 71 13 7 39 7 39 0z
m1581 -93 c5 -21 14 -38 19 -38 6 0 10 4 10 8 0 17 83 62 112 62 32 0 98 -35
98 -51 0 -15 99 -177 143 -232 43 -57 45 -63 50 -185 3 -90 3 -93 -17 -88 -12
3 -36 6 -54 6 -20 0 -31 5 -30 12 2 9 -18 15 -62 18 -72 7 -145 37 -145 60 0
8 10 16 23 18 33 5 27 20 -10 25 -18 2 3 4 47 4 44 0 61 -2 38 -4 -24 -2 -43
-9 -43 -15 0 -18 111 -4 126 17 21 29 6 38 -55 31 -31 -3 -60 -7 -66 -7 -5 0
-32 2 -60 5 -54 6 -78 26 -70 60 3 12 7 33 9 49 3 15 8 36 11 47 4 11 2 20 -4
20 -5 0 -17 -34 -26 -76 l-17 -75 -24 22 c-13 12 -27 20 -30 17 -7 -7 18 -48
29 -48 4 0 20 -13 35 -28 15 -16 36 -31 46 -35 11 -4 16 -13 12 -23 -8 -22 34
-60 82 -75 73 -21 36 -26 -58 -7 -51 10 -95 20 -99 22 -4 3 -23 35 -42 72 -37
74 -37 78 -17 250 8 61 12 116 10 123 -6 17 -22 13 -22 -6 0 -33 -13 -2 -16
39 l-3 43 20 -27 c11 -16 25 -28 30 -28 15 0 10 26 -7 41 -8 7 -22 26 -31 43
l-15 31 31 -30 c17 -16 36 -46 42 -67z m482 48 c-2 -32 -22 -61 -34 -49 -12
12 10 85 24 80 7 -2 11 -16 10 -31z m-97 -51 c18 -44 12 -44 -22 0 -17 23 -24
41 -19 52 6 17 7 17 16 0 6 -9 17 -33 25 -52z m-2316 38 c0 -4 -12 -18 -27
-30 -21 -18 -23 -21 -8 -16 11 3 25 10 32 15 7 5 14 5 17 -1 9 -14 -71 -34
-102 -26 -18 4 -31 0 -48 -16 -13 -12 -24 -17 -24 -11 0 16 64 55 68 42 2 -6
20 3 40 20 36 30 52 37 52 23z m220 -64 c-10 -44 -16 -57 -22 -45 -9 16 19
122 30 112 3 -3 -1 -33 -8 -67z m2791 38 c-16 -16 -26 0 -10 19 9 11 15 12 17
4 2 -6 -1 -17 -7 -23z m-3844 -9 c-3 -7 -5 -2 -5 12 0 14 2 19 5 13 2 -7 2
-19 0 -25z m703 22 c-8 -5 -26 -9 -40 -9 -23 1 -23 2 5 9 43 11 52 11 35 0z
m2585 0 c-3 -5 -10 -10 -16 -10 -5 0 -9 5 -9 10 0 6 7 10 16 10 8 0 12 -4 9
-10z m157 -9 c16 -14 16 -16 -2 -41 -11 -15 -24 -40 -30 -55 -10 -26 -12 -26
-33 -12 -28 18 -32 45 -14 89 16 38 47 45 79 19z m83 -9 c-3 -3 -11 0 -18 7
-9 10 -8 11 6 5 10 -3 15 -9 12 -12z m-2948 2 c-3 -3 -12 -4 -19 -1 -8 3 -5 6
6 6 11 1 17 -2 13 -5z m50 -10 c-3 -3 -12 -4 -19 -1 -8 3 -5 6 6 6 11 1 17 -2
13 -5z m2713 -8 c0 -8 -5 -18 -10 -21 -6 -4 -8 -15 -5 -25 8 -24 -9 -34 -25
-15 -18 22 4 74 33 75 4 0 7 -6 7 -14z m-2765 -6 c17 -7 14 -9 -13 -9 -20 -1
-31 3 -27 9 7 12 13 12 40 0z m2970 -5 c48 -11 135 -49 135 -61 0 -5 -16 -25
-35 -44 -38 -37 -45 -60 -17 -60 15 -1 15 -2 -3 -16 -12 -9 -21 -11 -23 -4 -2
5 -8 7 -13 4 -6 -3 -17 0 -25 7 -12 10 -10 15 17 31 40 25 32 32 -20 18 -46
-12 -119 -5 -138 13 -23 22 46 132 76 123 9 -3 30 -8 46 -11z m-3558 -57 c-2
-13 -4 -3 -4 22 0 25 2 35 4 23 2 -13 2 -33 0 -45z m3115 45 c8 -10 22 -31 32
-46 l17 -28 -25 16 c-22 15 -56 56 -56 70 0 11 18 4 32 -12z m178 13 c0 -3 -4
-8 -10 -11 -5 -3 -10 -1 -10 4 0 6 5 11 10 11 6 0 10 -2 10 -4z m-2625 -16
c-3 -5 -12 -10 -18 -10 -7 0 -6 4 3 10 19 12 23 12 15 0z m95 -20 c-8 -6 -22
-10 -30 -9 -9 0 -5 6 10 14 27 14 44 10 20 -5z m337 -12 c-3 -7 -5 -2 -5 12 0
14 2 19 5 13 2 -7 2 -19 0 -25z m2666 -21 c-15 -12 -38 -32 -51 -44 -13 -13
-25 -23 -27 -23 -10 0 30 62 44 68 9 3 25 17 36 31 17 22 20 23 23 8 2 -10 -8
-27 -25 -40z m117 11 c0 -19 -2 -20 -10 -8 -13 19 -13 30 0 30 6 0 10 -10 10
-22z m-3266 -13 c-4 -8 -13 -15 -21 -15 -13 0 -13 3 -3 15 7 8 16 15 21 15 5
0 6 -7 3 -15z m86 1 c-12 -12 -80 -19 -80 -8 0 17 14 22 51 20 22 -2 34 -7 29
-12z m3160 -31 c12 -19 24 -34 28 -34 32 5 41 -4 51 -51 19 -88 15 -119 -16
-131 -16 -6 -38 -19 -49 -30 l-21 -20 -15 38 c-9 21 -16 53 -16 72 l-1 34 28
-27 c33 -32 47 -33 62 -5 16 31 -17 74 -59 75 -18 0 -34 3 -37 6 -9 8 6 108
15 108 5 0 18 -16 30 -35z m-474 -2 c-6 -6 -36 9 -36 18 0 5 9 4 20 -3 10 -7
18 -14 16 -15z m404 7 c0 -11 -7 -20 -15 -20 -8 0 -19 -9 -25 -20 -6 -11 -21
-20 -33 -20 -19 1 -16 6 23 40 25 22 46 40 48 40 1 0 2 -9 2 -20z m-3200 -5
c9 5 11 4 6 -3 -8 -14 -46 -16 -46 -4 0 16 14 22 21 11 4 -6 12 -8 19 -4z
m433 0 c4 -8 2 -17 -3 -20 -6 -4 -10 3 -10 14 0 25 6 27 13 6z m-217 -17 c-9
-13 -22 -36 -29 -53 -8 -16 -21 -36 -30 -44 -10 -7 -17 -19 -17 -25 -1 -15
-78 -96 -92 -96 -7 0 1 15 18 33 39 42 94 114 94 122 0 9 60 85 67 85 3 0 -2
-10 -11 -22z m114 6 c0 -2 -9 -4 -21 -4 -11 0 -18 4 -14 10 5 8 35 3 35 -6z
m2360 0 c0 -8 -5 -12 -10 -9 -6 4 -8 11 -5 16 9 14 15 11 15 -7z m-573 -26
c-3 -7 -5 -2 -5 12 0 14 2 19 5 13 2 -7 2 -19 0 -25z m-2760 -25 c-3 -10 -5
-2 -5 17 0 19 2 27 5 18 2 -10 2 -26 0 -35z m1139 -49 c3 -63 2 -85 -5 -74
-11 15 -16 178 -6 168 3 -3 8 -45 11 -94z m-1070 22 c-4 -31 -12 -58 -17 -62
-5 -3 -7 -14 -4 -24 7 -21 -15 -82 -22 -61 -3 7 0 39 7 70 31 143 49 181 36
77z m814 60 c0 -2 -8 -10 -17 -17 -16 -13 -17 -12 -4 4 13 16 21 21 21 13z
m2404 -70 c15 -30 26 -63 24 -73 -3 -13 -9 -8 -24 22 -10 22 -25 46 -32 53
-21 22 -33 52 -27 63 10 16 28 -4 59 -65z m136 58 c0 -17 -22 -14 -28 4 -2 7
3 12 12 12 9 0 16 -7 16 -16z m-2525 -14 c-10 -11 -20 -18 -23 -15 -7 6 18 35
31 35 5 0 2 -9 -8 -20z m65 6 c0 -13 -20 -26 -42 -26 -7 0 -7 5 1 13 6 8 8 17
4 20 -3 4 3 7 15 7 12 0 22 -6 22 -14z m30 -6 c0 -5 -4 -10 -10 -10 -5 0 -10
5 -10 10 0 6 5 10 10 10 6 0 10 -4 10 -10z m2514 -24 c38 -35 46 -66 22 -85
-11 -9 -20 -6 -42 13 -25 22 -27 27 -16 45 16 28 15 41 -3 17 -14 -19 -35 -14
-35 8 0 13 20 36 31 36 4 0 24 -15 43 -34z m-3064 3 c0 -5 -11 -9 -25 -9 -28
0 -34 16 -7 23 20 4 32 -1 32 -14z m446 -14 c-23 -17 -46 -20 -46 -4 0 5 4 7
10 4 5 -3 18 -1 27 4 26 15 31 13 9 -4z m221 -7 c-3 -8 -6 -5 -6 6 -1 11 2 17
5 13 3 -3 4 -12 1 -19z m2483 13 c0 -17 -18 -21 -24 -6 -3 9 0 15 9 15 8 0 15
-4 15 -9z m-2890 -5 c0 -2 -7 -7 -16 -10 -8 -3 -12 -2 -9 4 6 10 25 14 25 6z
m270 -8 c0 -9 4 -8 10 2 8 13 13 13 31 2 18 -12 23 -12 30 0 7 11 11 10 19 -2
9 -13 10 -13 10 0 2 35 30 -70 34 -125 2 -33 9 -81 16 -107 12 -45 11 -49 -11
-67 -27 -22 -125 -53 -179 -56 -53 -3 -100 -15 -100 -26 0 -5 -22 -9 -50 -9
l-50 0 0 44 c0 25 -4 47 -9 50 -5 4 -5 22 -1 43 5 21 7 39 5 42 -2 2 0 12 5
22 6 11 6 19 0 21 -15 5 76 115 109 132 15 8 31 12 35 9 3 -4 6 0 6 7 0 7 3
10 6 7 4 -3 16 0 28 8 25 18 56 19 56 3z m2840 4 c0 -5 -17 -23 -39 -40 -37
-30 -39 -30 -55 -13 -22 24 -11 49 22 54 50 7 72 7 72 -1z m-3303 -13 c8 -8
17 -7 34 2 22 11 23 11 10 -4 -12 -15 -25 -16 -84 -8 -13 2 3 21 17 21 6 0 17
-5 23 -11z m232 -30 c-11 -16 -25 -29 -30 -29 -5 0 -9 -6 -9 -12 0 -7 -11 -18
-24 -24 -21 -10 -23 -9 -23 13 0 28 71 94 93 86 11 -4 10 -11 -7 -34z m2672
19 c19 -24 25 -48 10 -48 -5 0 -13 6 -18 13 -12 14 -24 57 -16 57 3 0 13 -10
24 -22z m534 12 c3 -6 3 -20 0 -31 -7 -21 -7 -21 -31 2 -13 12 -24 26 -24 31
0 12 48 10 55 -2z m-3948 -77 c-2 -16 -4 -3 -4 27 0 30 2 43 4 28 2 -16 2 -40
0 -55z m3663 33 c0 -8 -4 -18 -10 -21 -5 -3 -10 3 -10 14 0 12 5 21 10 21 6 0
10 -6 10 -14z m-3482 -18 c5 -7 12 -29 15 -48 3 -19 8 -47 12 -62 4 -17 3 -28
-3 -28 -5 0 -15 21 -22 48 -7 26 -17 51 -21 57 -12 12 -11 45 0 45 5 0 13 -6
19 -12z m377 2 c-3 -5 -11 -10 -16 -10 -6 0 -7 5 -4 10 3 6 11 10 16 10 6 0 7
-4 4 -10z m3255 -55 c0 -53 3 -63 15 -59 11 5 15 22 15 63 0 40 3 52 10 41 5
-8 10 -54 10 -102 0 -86 10 -114 29 -81 8 16 10 15 15 -7 17 -75 15 -80 -51
-121 -62 -38 -66 -38 -78 1 -24 80 -24 85 -10 93 20 11 19 31 0 23 -13 -4 -15
8 -15 74 0 44 4 80 9 80 5 0 14 14 20 30 17 50 31 35 31 -35z m-340 24 c0 -12
-27 -11 -35 1 -11 17 5 32 21 19 8 -6 14 -15 14 -20z m223 25 c21 -8 9 -44
-14 -44 -19 0 -27 29 -12 43 8 8 8 8 26 1z m-3051 -22 c-7 -2 -10 -8 -7 -12 3
-5 0 -12 -6 -16 -8 -4 -9 -3 -5 4 4 7 2 12 -5 12 -8 0 -8 4 1 15 7 8 17 12 23
8 8 -5 7 -8 -1 -11z m2948 8 c0 -5 -4 -10 -10 -10 -5 0 -10 5 -10 10 0 6 5 10
10 10 6 0 10 -4 10 -10z m541 -55 c1 -28 -4 -63 -11 -80 -16 -39 -25 -15 -10
29 6 19 8 52 4 77 -5 32 -4 41 4 34 7 -6 12 -33 13 -60z m-3971 0 c23 -51 25
-65 7 -65 -21 0 -60 59 -51 78 4 9 6 23 5 31 -4 26 19 -1 39 -44z m3464 49 c9
-3 14 -10 11 -15 -7 -10 -35 0 -35 12 0 11 3 11 24 3z m-3069 -56 c-28 -33
-184 -158 -199 -158 -4 0 11 15 35 33 23 17 74 64 113 102 70 69 102 84 51 23z
m2809 27 c4 -14 2 -33 -3 -43 -9 -15 -10 -15 -11 3 0 11 -3 30 -6 43 -4 12 -2
22 4 22 5 0 13 -11 16 -25z m-2217 -7 c-3 -8 -6 -5 -6 6 -1 11 2 17 5 13 3 -3
4 -12 1 -19z m2397 12 c29 -11 35 -40 9 -40 -23 0 -38 11 -46 33 -7 19 1 21
37 7z m476 -60 c0 -27 -4 -50 -10 -50 -5 0 -8 15 -6 33 2 17 4 40 5 50 2 39
11 14 11 -33z m-373 10 c16 -32 12 -34 -31 -20 -25 8 -36 18 -36 31 0 30 51
22 67 -11z m58 -7 c3 -14 3 -28 0 -31 -8 -8 -32 19 -39 45 -6 18 -3 20 13 16
11 -3 22 -16 26 -30z m281 21 c-3 -9 -6 -34 -6 -56 l0 -41 -26 39 -26 38 22
18 c27 22 44 23 36 2z m-3901 -21 c-10 -22 -6 -61 6 -85 6 -10 7 -18 5 -18 -8
0 -46 77 -46 94 0 14 31 39 39 31 2 -2 0 -12 -4 -22z m3383 -13 c-2 -7 -10 1
-17 16 -12 27 -11 28 4 12 10 -9 16 -21 13 -28z m41 -4 c-3 -3 -11 5 -18 17
-13 21 -12 21 5 5 10 -10 16 -20 13 -22z m-2359 -12 c7 -20 9 -47 4 -62 -7
-25 -8 -24 -15 17 -5 23 -11 52 -14 62 -4 10 -2 19 4 19 5 0 15 -16 21 -36z
m-966 -73 c32 -24 46 -42 46 -58 0 -28 3 -28 -45 -3 -22 11 -44 20 -51 20 -6
0 -17 7 -24 15 -7 8 -8 15 -2 15 6 0 5 14 -3 36 -7 20 -10 46 -7 57 4 17 7 15
23 -14 9 -19 38 -49 63 -68z m3256 16 c0 -10 7 -25 15 -33 8 -9 15 -21 15 -27
0 -22 -49 47 -55 78 -4 17 -9 39 -11 50 -3 11 4 4 15 -15 11 -19 20 -43 21
-53z m-2243 21 c-2 -13 -4 -5 -4 17 -1 22 1 32 4 23 2 -10 2 -28 0 -40z m2120
20 c-3 -7 -5 -2 -5 12 0 14 2 19 5 13 2 -7 2 -19 0 -25z m247 25 c4 -5 28 -15
54 -24 30 -10 48 -22 51 -35 3 -16 1 -17 -13 -5 -10 8 -29 12 -49 8 -41 -6
-53 0 -66 36 -8 21 -8 27 3 27 7 0 16 -3 20 -7z m-170 -89 c18 -70 19 -84 8
-84 -8 0 -42 139 -42 165 1 21 19 -22 34 -81z m-2804 72 c0 -2 -8 -10 -17 -17
-16 -13 -17 -12 -4 4 13 16 21 21 21 13z m1422 -48 c5 -41 3 -47 -17 -50 -21
-5 -21 -4 -7 49 9 29 16 52 17 51 1 -2 5 -24 7 -50z m1505 -14 c-9 -9 -46 11
-50 26 -4 18 -3 17 24 -2 16 -12 27 -23 26 -24z m-3022 27 c-3 -5 -24 -24 -48
-42 l-42 -32 40 41 c36 37 65 56 50 33z m-13 -73 c-31 -33 -58 -55 -60 -48 -2
6 12 27 32 46 20 20 44 47 53 60 11 17 18 21 23 13 5 -7 -15 -35 -48 -71z
m2322 66 c3 -8 2 -12 -4 -9 -6 3 -10 10 -10 16 0 14 7 11 14 -7z m920 0 c4 -9
4 -19 2 -21 -8 -8 -26 8 -26 23 0 19 16 18 24 -2z m-3386 -8 c34 -1 42 -10 17
-20 -11 -4 -14 -13 -9 -31 5 -19 0 -30 -17 -45 -31 -25 -44 -25 -69 0 -27 27
-16 44 15 24 14 -9 26 -11 29 -5 9 13 -14 61 -29 61 -7 0 -18 6 -24 14 -11 12
-7 14 21 9 18 -3 48 -6 66 -7z m2288 -11 c-8 -8 -20 -15 -27 -15 -7 0 -4 6 7
15 25 19 40 19 20 0z m-1419 -27 c-3 -7 -5 -2 -5 12 0 14 2 19 5 13 2 -7 2
-19 0 -25z m2829 -25 c-18 -33 -21 -17 -5 24 6 15 13 23 16 16 2 -6 -3 -24
-11 -40z m-1461 28 c6 -11 -57 -26 -77 -18 -7 3 -3 6 9 6 12 1 25 6 28 11 8
13 32 13 40 1z m113 -13 c-3 -7 -13 -15 -24 -17 -16 -3 -17 -1 -5 13 16 19 34
21 29 4z m1249 -10 c-3 -8 -6 -5 -6 6 -1 11 2 17 5 13 3 -3 4 -12 1 -19z
m-1137 -2 c0 -2 -7 -6 -15 -10 -8 -3 -15 -1 -15 4 0 6 7 10 15 10 8 0 15 -2
15 -4z m-2143 -58 c-2 -13 -4 -5 -4 17 -1 22 1 32 4 23 2 -10 2 -28 0 -40z
m42 -4 c-12 -28 -13 -28 -17 -6 -2 13 2 30 9 39 18 21 22 2 8 -33z m3066 -31
c5 -14 3 -23 -3 -23 -16 0 -26 20 -27 55 -2 43 8 55 16 20 4 -17 11 -40 14
-52z m-1798 33 c-6 -8 -15 -12 -19 -9 -5 2 -8 -1 -8 -7 0 -13 32 -27 83 -35
37 -6 38 -7 31 -38 -11 -52 -10 -62 7 -59 19 3 29 -68 29 -217 0 -107 8 -171
21 -171 5 0 9 14 9 30 0 17 4 30 9 30 5 0 9 46 10 102 1 56 6 107 12 114 6 8
5 25 -5 50 -17 47 -27 134 -15 134 5 0 9 9 9 20 0 14 9 20 33 24 108 17 169
21 313 21 l161 0 -3 -36 c-1 -20 4 -49 12 -64 17 -33 18 -114 2 -218 -10 -71
-14 -78 -37 -84 -14 -3 -46 -15 -70 -25 -31 -13 -47 -15 -56 -8 -10 8 -43 0
-121 -29 -60 -22 -129 -45 -154 -51 -25 -7 -72 -21 -104 -32 -51 -18 -66 -19
-108 -9 -27 6 -56 11 -64 11 -20 0 -17 -17 4 -24 9 -3 4 -3 -13 1 -16 3 -66 7
-110 10 -51 3 -95 11 -121 24 -22 10 -48 19 -58 19 -14 0 -16 4 -10 18 10 18
10 147 1 305 l-6 97 27 0 c16 0 32 8 40 20 9 14 23 20 50 20 46 0 167 41 195
67 24 22 44 20 24 -1z m1325 -17 c22 -37 47 -48 63 -26 13 18 39 17 57 -1 9
-9 5 -12 -19 -12 -18 0 -35 -5 -38 -11 -4 -5 -19 -15 -33 -21 -24 -9 -25 -11
-9 -17 14 -5 -3 -18 -70 -53 -48 -25 -113 -54 -143 -64 -30 -9 -62 -22 -70
-29 -41 -33 -261 -121 -273 -109 -2 2 2 36 9 76 8 43 9 77 4 82 -11 11 -17 -4
-23 -49 -2 -16 -2 6 0 50 4 84 -10 90 -22 10 -12 -78 -39 -195 -46 -195 -4 0
-1 24 7 53 8 28 17 88 19 132 2 44 4 85 4 92 1 7 18 30 39 53 28 30 47 42 77
46 22 3 47 8 55 11 8 3 65 7 126 9 90 3 114 1 124 -11 16 -19 28 -19 69 3 44
24 72 18 93 -19z m-3077 11 c32 -14 37 -19 23 -25 -12 -5 -28 2 -49 19 -35 30
-30 32 26 6z m690 10 c-11 -5 -29 -9 -40 -9 -31 -1 -1 14 32 16 24 1 25 0 8
-7z m115 6 c0 -3 -4 -8 -10 -11 -5 -3 -10 -1 -10 4 0 6 5 11 10 11 6 0 10 -2
10 -4z m2586 -24 c-4 -3 -14 2 -24 12 -16 18 -16 18 6 6 13 -6 21 -14 18 -18z
m54 18 c0 -5 -2 -10 -4 -10 -3 0 -8 5 -11 10 -3 6 -1 10 4 10 6 0 11 -4 11
-10z m-2560 -20 c0 -5 -7 -10 -16 -10 -8 0 -12 5 -9 10 3 6 10 10 16 10 5 0 9
-4 9 -10z m2354 -6 c3 -8 2 -12 -4 -9 -6 3 -10 10 -10 16 0 14 7 11 14 -7z
m446 13 c0 -2 -12 -14 -26 -28 -25 -22 -26 -23 -15 -2 9 18 19 26 39 32 1 1 2
0 2 -2z m-3530 -27 c-33 -26 -52 -25 -21 0 13 11 28 20 35 20 6 0 0 -9 -14
-20z m363 3 c-7 -2 -19 -2 -25 0 -7 3 -2 5 12 5 14 0 19 -2 13 -5z m-175 -33
c-7 -10 -14 -17 -17 -15 -4 4 18 35 25 35 2 0 -1 -9 -8 -20z m409 4 c-3 -3
-12 -4 -19 -1 -8 3 -5 6 6 6 11 1 17 -2 13 -5z m2680 -27 c18 -8 20 -13 12
-24 -16 -18 -50 -17 -43 1 4 10 -2 16 -18 18 -12 2 -24 11 -26 21 -4 18 7 16
75 -16z m73 13 c-20 -13 -33 -13 -25 0 3 6 14 10 23 10 15 0 15 -2 2 -10z
m-3190 -16 c0 -2 -7 -4 -15 -4 -8 0 -15 4 -15 10 0 5 7 7 15 4 8 -4 15 -8 15
-10z m140 12 c0 -3 -4 -8 -10 -11 -5 -3 -10 -1 -10 4 0 6 5 11 10 11 6 0 10
-2 10 -4z m-399 -35 c-21 -17 -42 -26 -53 -23 -18 4 -18 5 2 19 18 13 61 30
80 32 3 0 -10 -12 -29 -28z m619 15 c8 -8 26 -17 39 -21 l24 -7 -24 -13 c-21
-12 -28 -11 -56 11 -17 13 -39 24 -47 24 -18 0 -42 -33 -51 -72 -9 -36 -25
-26 -25 15 0 42 8 51 50 63 52 15 73 15 90 0z m2510 -9 c-36 -13 -75 -29 -87
-36 -13 -6 -23 -9 -23 -6 0 11 125 65 150 65 15 0 0 -9 -40 -23z m-2377 6 c-7
-2 -21 -2 -30 0 -10 3 -4 5 12 5 17 0 24 -2 18 -5z m-293 -17 c0 -8 -5 -18
-11 -22 -8 -4 -7 -9 2 -16 11 -8 11 -9 -1 -5 -8 2 -22 1 -31 -4 -8 -4 -21 -4
-28 1 -19 11 -6 40 19 40 11 0 20 5 20 10 0 6 7 10 15 10 8 0 15 -6 15 -14z
m444 -2 c10 -27 7 -36 -9 -20 -8 8 -15 19 -15 25 0 17 17 13 24 -5z m2407 -10
c12 -15 11 -16 -11 -9 -35 10 -49 25 -23 25 11 0 27 -7 34 -16z m175 -15 c7
-12 -2 -11 -50 2 -27 7 -35 13 -26 19 14 9 66 -6 76 -21z m-2889 1 c28 -22 58
-26 68 -10 3 6 15 10 25 10 10 0 20 4 22 9 2 5 21 6 44 2 22 -4 51 -4 65 1 18
7 26 5 36 -9 8 -10 20 -26 28 -36 17 -20 19 -43 6 -52 -15 -8 -41 -66 -41 -88
0 -13 5 -17 15 -13 8 3 14 2 14 -2 -4 -25 3 -34 21 -29 15 4 20 0 20 -15 0
-13 -5 -18 -14 -15 -8 3 -43 11 -78 17 -65 12 -98 25 -110 44 -4 6 -10 7 -15
3 -4 -5 -1 -13 7 -18 11 -8 12 -12 3 -16 -22 -8 -14 -23 11 -23 13 0 31 -3 40
-6 13 -5 12 -9 -6 -24 -22 -18 -28 -17 -80 2 -33 12 -37 28 -8 28 35 0 22 18
-17 24 -73 12 -77 12 -81 -8 -3 -14 0 -17 12 -13 29 11 31 -38 3 -75 -13 -18
-30 -46 -36 -63 -8 -23 -10 -24 -6 -5 3 14 10 75 16 135 6 61 12 111 14 113 1
1 24 -9 50 -23 54 -28 73 -32 55 -10 -7 8 -21 15 -31 15 -11 0 -19 4 -19 8 0
5 -18 14 -40 21 -25 7 -38 16 -34 23 4 7 3 8 -4 4 -7 -4 -12 -2 -12 3 0 6 -7
11 -15 11 -19 0 -19 21 -1 65 17 40 37 44 73 15z m717 -2 c-4 -12 -9 -44 -13
-70 -7 -53 -19 -65 -32 -31 -5 15 0 36 17 72 27 53 40 67 28 29z m-1400 1 c-3
-6 -1 -14 5 -18 7 -5 -3 -12 -24 -18 l-35 -11 28 29 c28 30 38 37 26 18z
m1340 -36 c-13 -25 -24 -55 -24 -65 0 -25 45 -69 63 -62 13 5 27 -54 40 -175
l4 -33 -40 6 c-22 4 -78 20 -126 37 -47 16 -108 37 -136 47 -60 19 -65 25 -65
78 0 38 6 47 71 113 40 39 75 68 79 66 4 -3 34 4 66 14 92 31 95 29 68 -26z
m2350 9 c35 -51 33 -65 -4 -22 -39 46 -39 24 0 -25 17 -21 28 -40 25 -43 -6
-6 -4 -9 -44 51 -18 26 -27 47 -20 47 6 0 9 7 5 15 -11 28 11 15 38 -23z
m-2524 20 c0 -4 -14 -23 -31 -42 l-30 -35 22 43 c21 38 39 54 39 34z m2070
-17 c-12 -15 -30 -12 -30 5 0 8 31 19 39 13 2 -1 -2 -9 -9 -18z m-3082 3 c-2
-6 -10 -14 -16 -16 -7 -2 -10 2 -6 12 7 18 28 22 22 4z m3375 -10 c10 -5 16
-12 13 -16 -4 -3 -12 0 -18 6 -7 7 -25 12 -40 12 -15 0 -28 5 -28 10 0 11 42
4 73 -12z m-3120 -7 c-3 -12 -11 -17 -19 -14 -12 4 -11 8 3 19 10 7 19 14 20
14 0 0 -1 -9 -4 -19z m3201 3 c11 -30 6 -37 -14 -19 -11 10 -17 22 -14 26 8
14 21 11 28 -7z m-421 -9 c8 -19 -4 -25 -33 -18 -22 6 -22 7 -5 20 24 17 32
16 38 -2z m-2991 -25 c-9 -16 -21 -30 -25 -30 -5 0 1 14 13 30 27 39 34 39 12
0z m328 15 c0 -10 -10 -15 -30 -15 -16 0 -30 4 -30 9 0 8 10 12 53 20 4 0 7
-6 7 -14z m3278 -24 c41 -38 52 -64 33 -76 -9 -5 -91 93 -91 108 0 15 18 5 58
-32z m-3503 4 c-21 -13 -41 -22 -43 -20 -9 8 43 44 63 44 15 0 9 -6 -20 -24z
m2815 19 c0 -6 -65 -34 -77 -33 -4 0 10 9 32 20 45 21 45 21 45 13z m150 -27
c0 -4 -10 -3 -21 4 -17 9 -19 13 -8 20 13 8 28 -5 29 -24z m390 -10 c0 -5 -7
-4 -15 3 -8 7 -15 20 -15 29 1 13 3 13 15 -3 8 -11 15 -24 15 -29z m-3480 29
c0 -2 -8 -10 -17 -17 -16 -13 -17 -12 -4 4 13 16 21 21 21 13z m180 -5 c0 -5
-10 -11 -22 -14 -22 -6 -22 -6 -4 8 23 17 26 18 26 6z m210 -1 c13 -8 13 -10
-2 -10 -9 0 -20 5 -23 10 -8 13 5 13 25 0z m-690 -4 c0 -3 -4 -8 -10 -11 -5
-3 -10 -1 -10 4 0 6 5 11 10 11 6 0 10 -2 10 -4z m3460 -11 c7 -9 8 -15 2 -15
-5 0 -12 7 -16 15 -3 8 -4 15 -2 15 2 0 9 -7 16 -15z m-3576 -20 c3 -8 1 -15
-4 -15 -6 0 -10 7 -10 15 0 8 2 15 4 15 2 0 6 -7 10 -15z m696 -1 c12 -4 12
-7 1 -13 -16 -10 -63 1 -68 16 -4 10 31 8 67 -3z m2650 7 c0 -9 -102 -81 -115
-81 -13 0 8 22 53 55 49 36 62 41 62 26z m-3110 -9 c0 -4 -18 -13 -40 -19 -47
-12 -50 -9 -12 11 30 17 52 20 52 8z m215 -11 c-3 -6 -11 -11 -17 -11 -6 0 -6
6 2 15 14 17 26 13 15 -4z m413 11 c-8 -19 -117 -112 -122 -104 -2 4 8 16 24
26 17 9 33 28 36 40 3 13 15 28 27 34 27 13 40 15 35 4z m402 4 c0 -3 -4 -8
-10 -11 -5 -3 -10 -1 -10 4 0 6 5 11 10 11 6 0 10 -2 10 -4z m2170 -5 c0 -5
-8 -11 -17 -14 -10 -2 -26 -8 -35 -12 -10 -4 -18 -3 -18 2 0 5 12 14 28 20 35
14 42 15 42 4z m-3070 -11 c0 -5 -4 -10 -10 -10 -5 0 -10 5 -10 10 0 6 5 10
10 10 6 0 10 -4 10 -10z m230 0 c0 -5 -5 -10 -11 -10 -5 0 -7 5 -4 10 3 6 8
10 11 10 2 0 4 -4 4 -10z m2670 6 c0 -2 -8 -10 -17 -17 -16 -13 -17 -12 -4 4
13 16 21 21 21 13z m240 -39 c0 -12 -4 -28 -9 -35 -6 -10 -11 -5 -20 19 -9 25
-8 34 1 40 17 11 28 1 28 -24z m-2264 -12 c-4 -14 -11 -25 -16 -25 -5 0 -5 13
2 31 12 35 23 31 14 -6z m1914 20 c-7 -8 -17 -15 -23 -15 -6 0 -2 7 9 15 25
19 30 19 14 0z m-2538 -12 c19 -17 25 -63 8 -63 -5 0 -11 10 -11 23 -1 16 -2
18 -6 5 -6 -23 -11 -23 -34 5 -23 28 -23 34 -1 40 9 3 19 5 21 6 3 0 13 -6 23
-16z m263 -19 c-5 -41 -15 -58 -15 -26 0 11 -6 22 -12 25 -10 3 -10 7 1 20 22
27 31 20 26 -19z m2465 31 c0 -2 -10 -9 -22 -15 -22 -11 -22 -10 -4 4 21 17
26 19 26 11z m690 -20 c7 -14 11 -28 7 -31 -3 -3 -13 8 -22 25 -8 17 -12 31
-7 31 5 0 15 -11 22 -25z m-3340 -15 c0 -28 -13 -40 -24 -22 -7 12 5 52 15 52
5 0 9 -13 9 -30z m50 4 c-35 -30 -41 -29 -29 4 6 15 17 22 34 22 l27 0 -32
-26z m2670 21 c0 -3 -12 -29 -26 -57 -23 -45 -27 -49 -41 -35 -13 12 -13 21
-4 50 11 33 17 37 64 46 4 0 7 -1 7 -4z m80 -70 c15 0 16 3 19 53 2 42 17 9
30 -70 14 -84 -4 -252 -26 -244 -14 6 -67 -41 -95 -84 -23 -35 -30 -21 -18 36
5 27 12 79 16 117 l6 67 46 -55 c25 -30 48 -53 50 -50 2 2 -17 32 -43 67 -26
35 -50 69 -52 76 -3 6 -11 12 -18 12 -7 0 -18 6 -24 14 -9 11 -5 24 19 62 16
26 30 55 30 63 0 9 11 -2 23 -24 12 -22 29 -40 37 -40z m488 57 c6 -18 -15
-14 -22 4 -4 10 -1 14 6 12 6 -2 14 -10 16 -16z m142 -30 l0 -26 -21 21 c-14
13 -19 28 -15 38 9 25 36 0 36 -33z m-3923 21 c-9 -9 -20 -13 -24 -9 -4 4 -1
11 7 16 25 16 35 11 17 -7z m233 8 c0 -6 -4 -13 -10 -16 -5 -3 -8 -21 -5 -40
3 -27 -2 -42 -21 -65 -38 -45 -49 -36 -20 16 32 57 33 73 4 48 -20 -18 -21
-18 -15 -1 4 11 10 30 13 43 4 17 13 24 30 24 13 0 24 -4 24 -9z m108 -50 c19
-57 19 -59 2 -64 -27 -7 -50 -59 -69 -159 l-17 -90 -19 36 c-21 39 -52 47 -79
21 -20 -21 -26 -19 -26 9 0 14 -5 28 -11 31 -5 4 -14 18 -20 32 -7 19 -5 30
10 49 11 14 22 20 26 15 4 -7 14 -6 30 1 13 6 22 15 19 19 -3 5 2 9 10 9 8 0
29 28 46 62 29 56 54 87 72 88 3 0 15 -27 26 -59z m-413 9 c2 -16 -1 -30 -6
-30 -5 0 -9 8 -9 17 0 15 -1 15 -13 -2 -9 -11 -16 -14 -20 -8 -6 10 34 64 42
57 2 -2 5 -17 6 -34z m175 32 c0 -8 -54 -43 -67 -43 -5 -1 -14 -5 -21 -11 -7
-6 -15 -9 -18 -6 -5 6 84 68 98 68 4 0 8 -4 8 -8z m2767 -35 c-40 -34 -49 -54
-17 -37 14 8 20 8 20 0 0 -20 -29 -22 -59 -4 l-30 18 57 32 c31 17 59 29 62
27 3 -3 -12 -19 -33 -36z m245 7 c-7 -12 -11 -13 -17 -4 -4 7 -2 16 6 21 18
11 23 4 11 -17z m272 -25 c-3 -6 -12 1 -20 16 -19 36 -18 39 6 15 12 -12 18
-25 14 -31z m-3244 35 c0 -4 -11 -32 -24 -63 -13 -31 -27 -65 -30 -75 -4 -10
-9 -16 -13 -13 -3 4 4 35 17 69 12 35 24 69 26 76 3 12 24 17 24 6z m449 -46
c-10 -29 -18 -65 -19 -80 0 -18 -5 -28 -15 -28 -28 0 -18 67 17 116 17 24 32
44 33 44 1 0 -6 -24 -16 -52z m44 5 c-3 -21 -14 -54 -25 -73 l-19 -35 6 55 c5
44 26 90 41 90 1 0 0 -17 -3 -37z m2323 18 c0 -11 -5 -17 -13 -14 -17 6 -17
20 0 26 6 3 12 6 12 6 1 1 1 -7 1 -18z m664 3 c0 -8 -4 -12 -10 -9 -5 3 -10
10 -10 16 0 5 5 9 10 9 6 0 10 -7 10 -16z m29 -17 c0 -21 -1 -21 -9 -2 -12 28
-12 37 0 30 6 -3 10 -16 9 -28z m-744 13 c-3 -5 -12 -10 -18 -10 -7 0 -6 4 3
10 19 12 23 12 15 0z m-3187 -18 c-3 -10 0 -26 7 -36 12 -15 15 -14 38 14 27
32 53 41 43 14 -14 -36 -79 -124 -92 -124 -16 0 -19 31 -4 46 8 8 7 20 -1 40
l-11 29 -11 -25 c-17 -41 -49 -91 -54 -86 -7 7 68 146 79 146 6 0 8 -8 6 -18z
m33 -15 c-13 -12 -20 -15 -16 -7 14 26 28 41 33 35 3 -3 -5 -16 -17 -28z m333
11 c-3 -13 -15 -41 -25 -63 l-18 -40 -1 43 c0 29 6 48 20 62 26 26 33 25 24
-2z m303 -14 c-9 -9 -27 6 -27 22 0 13 2 13 16 -1 9 -9 14 -18 11 -21z m137
20 c4 -9 2 -22 -3 -28 -11 -13 -51 -130 -51 -148 1 -20 29 34 30 56 0 17 2 16
23 -6 13 -14 28 -27 35 -29 6 -2 15 -56 22 -129 6 -68 14 -129 17 -135 3 -5
-9 7 -26 28 -18 20 -39 37 -47 37 -8 0 -14 5 -14 12 0 16 -61 78 -77 78 -7 0
-13 4 -13 10 0 5 7 7 16 3 16 -6 15 0 -7 87 -16 64 -11 108 14 122 12 7 29 13
37 13 8 0 16 10 18 23 4 26 17 29 26 6z m2493 -21 c-7 -22 -13 -31 -15 -21 -3
15 14 58 22 58 2 0 -1 -17 -7 -37z m53 6 c0 -27 -26 -75 -45 -83 -12 -4 -14 0
-9 22 19 78 54 118 54 61z m647 -10 c2 -12 -1 -18 -7 -14 -5 3 -10 16 -10 27
0 26 13 16 17 -13z m-3700 -10 c-29 -22 -36 -45 -12 -35 12 4 15 -5 15 -49 0
-30 -4 -55 -9 -55 -15 0 -20 13 -26 71 -5 49 -3 55 22 75 16 12 30 20 32 18 2
-2 -8 -13 -22 -25z m3593 10 c0 -6 -4 -7 -10 -4 -5 3 -10 11 -10 16 0 6 5 7
10 4 6 -3 10 -11 10 -16z m-2598 -3 c32 -7 57 -31 44 -43 -2 -2 -27 7 -55 21
-50 26 -63 37 -38 32 6 -2 29 -6 49 -10z m1793 -14 c40 -28 52 -50 41 -79 -6
-14 -12 -11 -39 14 -18 17 -47 40 -65 51 -31 18 -32 21 -15 31 26 15 33 13 78
-17z m335 -3 c0 -4 -11 -21 -25 -36 l-26 -28 7 40 c4 22 9 44 11 48 5 9 33
-11 33 -24z m-3240 11 c0 -5 -5 -10 -11 -10 -5 0 -7 5 -4 10 3 6 8 10 11 10 2
0 4 -4 4 -10z m3510 -6 c0 -8 -5 -12 -10 -9 -6 4 -8 11 -5 16 9 14 15 11 15
-7z m418 -14 c2 -32 -12 -41 -22 -14 -10 25 -7 44 7 44 7 0 14 -13 15 -30z
m-3983 11 c3 -5 1 -12 -5 -16 -5 -3 -10 1 -10 9 0 18 6 21 15 7z m811 -113 c0
-104 9 -223 29 -349 l4 -26 -31 29 c-21 20 -35 46 -45 86 -18 74 -30 282 -16
282 6 0 21 23 34 50 13 28 24 50 25 50 0 0 0 -55 0 -122z m314 80 c0 -6 -7 -5
-15 2 -8 7 -15 17 -15 22 0 6 7 5 15 -2 8 -7 15 -17 15 -22z m1540 28 c0 -2
-13 -9 -30 -15 -35 -12 -41 -5 -7 9 25 10 37 12 37 6z m410 -17 c0 -11 -4 -18
-10 -14 -5 3 -7 12 -3 20 7 21 13 19 13 -6z m637 -1 c-3 -8 -6 -5 -6 6 -1 11
2 17 5 13 3 -3 4 -12 1 -19z m-3587 3 c0 -6 -4 -13 -10 -16 -5 -3 -10 1 -10 9
0 9 5 16 10 16 6 0 10 -4 10 -9z m402 -28 c1 -21 1 -65 1 -98 -1 -50 1 -56 9
-35 l10 25 9 -28 c4 -16 5 -35 2 -43 -5 -14 22 -94 44 -130 15 -24 73 -187 68
-193 -2 -1 -16 9 -31 23 -19 17 -31 22 -35 14 -7 -12 6 -49 52 -142 33 -66 35
-73 14 -56 -8 7 -15 18 -15 25 0 6 -9 20 -20 30 -11 10 -20 26 -20 36 0 10
-11 26 -25 37 -14 11 -31 33 -38 48 -7 16 -25 48 -40 72 -15 23 -37 67 -48 97
-11 30 -25 57 -30 61 -10 6 -4 79 13 159 26 119 76 180 80 98z m396 20 c-2
-14 3 -17 25 -15 33 3 33 3 5 -50 -27 -51 -37 -210 -19 -284 14 -54 76 -207
128 -314 20 -41 49 -101 65 -133 15 -32 24 -56 19 -53 -10 7 -131 172 -131
180 0 3 -16 31 -36 62 -23 36 -39 53 -46 46 -6 -6 6 -37 34 -88 24 -44 51 -96
61 -117 16 -36 16 -37 -1 -28 -31 16 -66 71 -79 124 -8 28 -27 74 -44 103 -36
64 -69 233 -69 357 0 74 3 87 38 154 35 70 56 93 50 56z m662 -78 c47 -10 92
-21 100 -26 28 -17 -93 3 -165 26 -38 13 -86 25 -105 27 -34 3 -35 2 -44 -39
l-9 -42 -27 38 c-27 36 -60 95 -60 105 0 2 51 -13 113 -34 61 -21 150 -46 197
-55z m1771 -8 c-4 -109 -30 -228 -69 -304 -19 -40 -37 -72 -38 -70 -1 1 1 32
6 68 9 74 4 119 -15 134 -9 8 -11 33 -6 100 6 83 9 93 39 125 17 19 32 38 32
43 0 5 12 -1 27 -13 24 -19 26 -26 24 -83z m-3261 69 c0 -13 -8 -30 -17 -37
-15 -13 -16 -11 -10 11 4 14 7 31 7 38 0 6 5 12 10 12 6 0 10 -11 10 -24z
m2778 16 c7 -5 10 -16 6 -25 -9 -24 -21 -21 -26 8 -5 26 -1 30 20 17z m1145
-34 c-3 -24 -9 -47 -14 -52 -5 -6 -9 -21 -9 -34 0 -13 -4 -21 -10 -17 -6 4 -6
15 1 32 5 14 7 35 3 46 -6 19 13 67 26 67 4 0 5 -19 3 -42z m-4077 -20 c-19
-27 -21 -19 -4 18 7 14 14 21 16 15 2 -6 -4 -21 -12 -33z m1130 -163 c4 -237
6 -263 28 -334 21 -72 21 -72 -15 -28 -17 20 -36 37 -42 37 -13 0 -31 42 -74
170 -34 103 -30 220 11 304 26 52 30 57 58 54 l30 -3 4 -200z m2146 98 c-1
-60 -5 -118 -8 -131 l-4 -22 -25 24 c-20 20 -25 35 -25 77 0 45 2 50 15 39 9
-7 18 -10 21 -7 8 7 -14 47 -26 47 -19 0 -10 21 23 50 17 16 32 30 32 30 0 0
-1 -48 -3 -107z m355 -6 c4 -72 3 -80 -10 -64 -10 11 -15 45 -16 100 -1 109
19 80 26 -36z m-793 95 c2 -4 1 -14 -4 -22 -8 -13 -13 -11 -32 8 l-22 22 26 0
c15 0 29 -4 32 -8z m755 -109 c1 -23 5 -52 10 -65 7 -21 -11 -88 -24 -88 -3 0
-3 29 0 65 3 36 2 73 -3 82 -7 12 -10 -3 -11 -53 -1 -100 -7 -149 -32 -239
-20 -74 -55 -143 -66 -131 -3 2 2 26 10 53 24 73 57 227 73 333 8 52 17 111
21 130 l7 35 7 -40 c4 -22 8 -59 8 -82z m247 80 c-10 -66 -15 -86 -22 -92 -7
-6 3 79 12 112 10 32 17 18 10 -20z m275 -13 c2 -20 -1 -42 -5 -49 -15 -24
-27 14 -20 59 8 47 22 42 25 -10z m-2921 20 c0 -5 8 -11 18 -14 10 -4 33 -41
55 -89 31 -69 37 -93 37 -150 0 -77 34 -211 61 -242 10 -11 34 -72 55 -135 41
-127 78 -216 102 -243 21 -23 11 -30 -29 -20 -25 7 -35 17 -45 45 -24 71 -127
213 -146 202 -5 -3 -7 -18 -3 -32 5 -22 4 -24 -9 -13 -9 8 -21 32 -27 55 -6
22 -31 82 -55 132 -35 72 -47 108 -55 180 -11 87 -7 313 5 333 7 11 36 4 36
-9z m134 -48 c8 -14 -1 -52 -13 -52 -10 0 -51 74 -51 94 0 9 6 13 14 10 8 -3
18 1 22 8 6 9 10 3 15 -18 3 -17 9 -36 13 -42z m17 42 c5 -15 8 -29 5 -31 -2
-2 -8 10 -14 26 -13 38 -5 41 9 5z m1787 8 c2 -7 -5 -12 -17 -12 -14 0 -19 5
-14 15 6 17 25 15 31 -3z m818 -33 c7 -46 -13 -26 -22 21 -5 27 -4 32 5 24 7
-6 15 -27 17 -45z m-1167 16 c14 -13 13 -15 -5 -15 -12 0 -29 9 -39 20 -17 19
-17 19 6 15 12 -3 30 -11 38 -20z m-2471 -52 c40 -88 73 -176 67 -181 -2 -2
-17 23 -34 55 -28 57 -61 97 -61 75 0 -6 5 -14 11 -17 5 -4 21 -31 34 -60 13
-30 41 -80 63 -112 40 -59 72 -131 39 -88 -12 15 -19 17 -27 9 -8 -9 -7 -21 4
-49 22 -53 21 -53 -19 -9 -26 30 -34 48 -35 79 0 22 -5 47 -11 55 -8 12 -9 7
-6 -17 2 -18 1 -33 -3 -33 -12 0 -41 42 -37 53 3 7 -4 26 -14 43 -13 21 -20
59 -24 120 -4 71 -3 84 6 64 16 -34 24 -8 10 32 -13 37 -14 48 -2 48 4 0 22
-30 39 -67z m2415 39 c17 -15 25 -38 9 -28 -4 2 -6 -12 -5 -32 l4 -37 -14 30
c-8 17 -26 41 -41 55 -24 22 -25 25 -9 31 20 7 29 4 56 -19z m258 2 c14 -38 7
-38 -26 -4 -28 29 -28 30 -7 30 15 0 26 -9 33 -26z m700 -11 c-9 -16 -10 -14
-11 12 0 21 3 26 11 18 8 -8 8 -16 0 -30z m-3523 -17 c0 -66 26 -142 72 -218
40 -66 48 -88 32 -88 -4 0 -13 15 -20 33 -7 19 -23 39 -35 46 -13 7 -35 38
-49 69 -61 140 -61 138 -47 163 12 23 28 39 40 39 3 0 6 -20 7 -44z m2732 -16
c0 -10 -8 -6 -26 12 -16 16 -23 31 -19 38 9 15 44 -25 45 -50z m5 50 c3 -5 1
-10 -4 -10 -6 0 -11 5 -11 10 0 6 2 10 4 10 3 0 8 -4 11 -10z m982 -22 c-3 -7
-5 -2 -5 12 0 14 2 19 5 13 2 -7 2 -19 0 -25z m-3933 14 c15 9 17 7 11 -11
-12 -38 6 -47 32 -15 12 16 23 24 23 17 0 -6 -4 -15 -10 -18 -5 -3 -10 -19
-10 -36 0 -25 -4 -29 -28 -29 -40 0 -62 20 -69 64 -6 36 -5 38 13 28 13 -7 25
-7 38 0z m2416 2 c0 -6 -106 -54 -121 -54 -6 0 -9 6 -7 12 6 16 128 56 128 42z
m825 -59 c5 -33 4 -47 -3 -40 -5 6 -12 32 -16 60 -4 30 -3 46 3 40 5 -6 13
-32 16 -60z m-1650 40 c22 -3 57 -11 79 -17 36 -11 37 -12 15 -20 -15 -6 -25
-5 -27 1 -5 14 -29 14 -34 0 -4 -11 -98 30 -98 43 0 4 6 5 13 3 6 -2 30 -7 52
-10z m1395 -17 c0 -5 -4 -8 -10 -8 -5 0 -10 10 -10 23 0 18 2 19 10 7 5 -8 10
-18 10 -22z m-495 13 c-7 -12 -104 -45 -111 -38 -3 3 19 14 48 26 60 23 72 25
63 12z m600 -15 c19 -29 11 -63 -11 -41 -13 12 -20 65 -9 65 2 0 11 -11 20
-24z m95 20 c0 -2 -3 -12 -6 -20 -5 -13 -9 -14 -20 -5 -16 13 -9 29 12 29 8 0
14 -2 14 -4z m-2914 -29 c18 6 22 -63 6 -84 -13 -16 -14 -16 -9 -1 4 10 -3 39
-13 65 -11 27 -14 41 -8 32 7 -9 18 -14 24 -12z m-356 -31 c-1 -21 -1 -21 -15
-2 -21 27 -20 53 0 36 8 -7 15 -22 15 -34z m1610 12 c24 -39 25 -58 6 -58 -19
0 -23 7 -31 53 -9 46 -1 47 25 5z m1209 -50 c17 -32 29 -58 26 -58 -7 0 -69
99 -79 125 -13 36 18 -4 53 -67z m201 20 c0 -5 -6 -6 -12 -2 -9 5 -8 2 1 -9 8
-10 10 -21 6 -25 -4 -4 -10 -1 -12 6 -3 7 -15 25 -27 40 -34 40 -21 61 15 26
16 -15 29 -32 29 -36z m821 35 c0 -16 3 -41 5 -56 5 -26 -22 -87 -37 -87 -4 0
-5 12 -2 28 3 15 5 43 5 62 -1 48 6 80 18 80 6 0 10 -12 11 -27z m165 -28 c-6
-55 -31 -131 -48 -150 -20 -23 7 148 29 182 23 34 26 28 19 -32z m146 -17 c-8
-8 -8 -2 -1 57 1 11 4 5 6 -14 3 -18 0 -38 -5 -43z m-1224 26 c-10 -10 -28 6
-28 24 0 15 1 15 17 -1 9 -9 14 -19 11 -23z m190 24 c7 -7 12 -20 12 -30 0
-16 -3 -17 -20 -8 -11 6 -20 20 -20 30 0 23 10 26 28 8z m-1085 -5 c-7 -2 -21
-2 -30 0 -10 3 -4 5 12 5 17 0 24 -2 18 -5z m-502 -92 c20 -31 44 -69 53 -84
14 -23 20 -26 32 -16 21 17 17 5 -17 -49 -17 -28 -29 -58 -26 -69 4 -17 4 -17
12 2 5 11 22 40 38 64 29 43 31 44 40 23 8 -17 3 -35 -21 -84 -36 -73 -42 -99
-24 -105 7 -3 12 4 12 15 0 11 11 43 24 72 l24 52 7 -30 c3 -17 2 -48 -4 -68
-12 -43 -8 -52 14 -34 13 11 15 9 15 -11 0 -13 8 -37 18 -54 36 -60 53 -122
53 -197 1 -92 -8 -126 -32 -133 -11 -4 -17 -11 -14 -16 10 -15 -12 -10 -33 9
-32 27 -132 336 -142 436 -4 45 -15 98 -24 120 -22 54 -20 60 13 35 16 -12 34
-18 41 -14 8 5 -7 25 -42 59 -59 56 -78 90 -77 139 0 29 1 30 12 13 7 -10 28
-44 48 -75z m139 67 c0 -13 -23 -5 -28 10 -2 7 2 10 12 6 9 -3 16 -11 16 -16z
m1399 -4 c3 -16 1 -17 -13 -5 -19 16 -21 34 -3 29 6 -3 14 -13 16 -24z m-1265
1 c-4 -8 -17 -15 -30 -15 -30 0 -31 8 -1 20 32 13 37 12 31 -5z m1472 -80 c-3
-13 -13 -26 -22 -29 -14 -5 -15 0 -9 40 4 26 12 55 18 66 11 17 12 15 15 -18
2 -20 1 -47 -2 -59z m631 73 c-3 -8 -6 -5 -6 6 -1 11 2 17 5 13 3 -3 4 -12 1
-19z m-2327 -46 c0 -21 -13 -6 -28 33 l-12 30 20 -24 c11 -13 20 -30 20 -39z
m1171 -42 c22 -52 48 -107 59 -122 47 -64 46 -111 -4 -235 l-22 -53 0 124 c1
98 4 122 14 114 6 -6 12 -7 12 -4 0 7 -41 67 -51 76 -3 3 -12 30 -19 60 -7 30
-21 70 -31 88 -22 38 -24 55 -8 50 6 -2 29 -46 50 -98z m155 39 l-14 -34 -1
50 c-1 45 0 48 15 34 14 -14 14 -20 0 -50z m1162 38 c6 3 12 -2 12 -11 0 -9
-4 -16 -10 -16 -19 0 -52 -42 -57 -74 -2 -17 -8 -49 -13 -70 -5 -22 -6 -52 -3
-68 3 -16 1 -28 -5 -28 -5 0 -13 16 -16 35 -8 38 26 168 49 191 7 8 12 26 10
41 -2 22 -1 24 9 12 6 -9 17 -14 24 -12z m-3878 -62 c26 -68 39 -87 51 -79 5
3 9 0 9 -5 0 -20 19 -11 34 17 14 25 15 25 16 5 0 -12 4 -24 9 -27 4 -3 11
-24 14 -47 3 -23 15 -55 26 -70 31 -42 3 -43 -36 -1 -17 19 -36 31 -42 27 -7
-3 -11 2 -11 14 0 11 -6 24 -14 28 -15 8 -46 72 -77 163 -25 71 -10 53 21 -25z
m39 10 c1 -23 -2 -26 -9 -15 -5 8 -9 31 -9 50 0 29 2 31 9 15 5 -11 9 -33 9
-50z m2331 56 c0 -17 -32 -21 -46 -6 -14 13 -12 15 15 15 17 0 31 -4 31 -9z
m1626 -56 c-13 -44 -14 -46 -15 -18 -1 31 20 94 26 77 1 -5 -4 -31 -11 -59z
m-4043 10 c8 -22 18 -49 22 -60 8 -20 8 -20 -11 0 -22 24 -64 82 -64 89 0 4
31 14 37 12 1 -1 8 -19 16 -41z m438 4 c15 -30 19 -52 15 -83 -3 -22 -5 -52
-6 -66 -1 -26 -69 131 -70 161 -1 45 35 37 61 -12z m1125 25 c-4 -9 -2 -22 4
-29 6 -8 7 -16 2 -19 -11 -7 -35 42 -27 55 10 16 27 10 21 -7z m1071 -32 c9
-20 17 -44 18 -54 1 -9 5 -25 9 -35 6 -16 5 -16 -7 -3 -8 8 -21 35 -30 60 -8
25 -18 54 -23 64 -14 36 15 6 33 -32z m341 26 c15 -15 16 -87 2 -157 -13 -67
-41 -164 -46 -158 -2 2 0 37 6 78 5 41 11 113 12 161 2 49 5 88 9 88 3 0 10
-5 17 -12z m192 -28 c0 -13 -1 -13 -10 0 -5 8 -10 22 -10 30 0 13 1 13 10 0 5
-8 10 -22 10 -30z m-1510 15 c0 -8 -4 -15 -10 -15 -5 0 -7 7 -4 15 4 8 8 15
10 15 2 0 4 -7 4 -15z m799 -57 c0 -10 -3 -18 -9 -18 -5 0 -10 6 -10 14 0 7
-7 19 -15 26 -8 7 -15 16 -15 21 0 5 7 9 15 9 8 0 16 6 16 13 2 14 16 -39 18
-65z m1030 -4 c-12 -38 -27 -77 -34 -87 -11 -16 -13 -12 -17 35 -3 49 0 56 31
91 18 21 35 36 38 34 2 -2 -6 -35 -18 -73z m-1793 39 c-10 -10 -19 5 -10 18 6
11 8 11 12 0 2 -7 1 -15 -2 -18z m1230 -117 c-9 -179 -34 -280 -77 -316 -3 -3
-18 -23 -32 -45 l-27 -40 0 33 c0 17 5 32 10 32 6 0 9 23 9 53 -2 48 -2 49 -9
17 l-6 -35 -8 28 c-10 35 1 88 15 66 6 -10 9 -4 9 20 0 27 44 190 85 318 3 7
11 10 21 6 15 -6 16 -20 10 -137z m107 -29 c-2 -185 -2 -185 -26 -238 -9 -19
-19 -47 -22 -62 -4 -15 -11 -27 -15 -27 -12 0 -22 33 -12 39 13 9 34 52 29 58
-3 2 -1 18 3 34 5 16 5 29 2 29 -4 0 -13 -24 -20 -52 -7 -31 -20 -59 -32 -67
-17 -11 -19 -21 -14 -70 5 -48 3 -61 -17 -93 -22 -34 -28 -37 -70 -38 -25 0
-54 -6 -64 -14 -18 -13 -17 -15 20 -21 22 -3 49 -8 59 -10 11 -2 27 1 35 8 8
7 4 -7 -10 -32 -13 -25 -30 -47 -37 -49 -12 -4 -12 0 -1 19 22 41 20 48 -13
38 -16 -4 -35 -12 -41 -17 -7 -5 -24 -12 -39 -16 l-27 -6 26 59 c30 69 103
150 103 114 0 -12 -4 -25 -10 -28 -15 -9 -12 -35 4 -35 8 0 16 17 21 43 4 23
9 47 11 52 2 6 12 46 22 90 10 44 24 91 32 105 7 14 24 54 37 90 l23 65 1 -65
c2 -114 18 -12 20 130 1 69 4 128 6 133 14 26 18 -13 16 -166z m-1515 117 l-3
-29 -17 32 c-13 24 -15 33 -5 36 19 7 29 -8 25 -39z m1041 14 c15 -43 8 -45
-12 -3 -9 19 -13 35 -8 35 5 0 14 -14 20 -32z m241 -40 c-1 -73 -1 -73 -15
-39 -12 27 -13 41 -3 72 6 22 13 39 15 39 1 0 3 -33 3 -72z m69 56 c4 -4 -37
-131 -50 -154 -5 -9 -9 22 -9 78 l0 92 28 -6 c15 -4 29 -8 31 -10z m646 -60
c-8 -38 -21 -94 -30 -124 -8 -30 -20 -79 -26 -107 -12 -52 -22 -65 -32 -40 -3
6 -6 2 -6 -10 -1 -13 4 -23 9 -23 18 0 10 -14 -22 -39 -31 -25 -31 -25 -19 -2
7 12 10 25 7 28 -7 7 22 63 33 63 9 0 22 63 25 125 1 22 12 58 23 80 11 22 26
59 33 83 19 63 22 45 5 -34z m111 -7 c-9 -30 -26 -65 -40 -80 -13 -14 -29 -42
-36 -62 -6 -19 -14 -35 -16 -35 -8 0 8 74 17 85 5 5 9 15 9 22 0 8 16 37 35
66 19 28 36 61 36 72 1 17 2 17 6 3 2 -10 -3 -42 -11 -71z m-1766 58 c10 -12
10 -18 0 -30 -7 -8 -18 -15 -26 -15 -16 0 -37 37 -29 50 9 15 41 12 55 -5z
m-396 -32 c9 -18 14 -33 12 -33 -6 0 -36 55 -36 66 0 11 5 3 24 -33z m523 0
c-8 -7 -35 9 -41 23 -4 11 0 11 20 -2 13 -9 23 -18 21 -21z m1082 -57 c-9 -8
-10 -2 -5 29 3 22 7 47 8 55 1 8 3 -5 5 -29 3 -26 -1 -48 -8 -55z m946 66 c0
-16 -5 -29 -12 -29 -16 0 -15 -1 -3 31 12 33 15 33 15 -2z m-3327 -7 c-3 -3
-9 2 -12 12 -6 14 -5 15 5 6 7 -7 10 -15 7 -18z m1736 -18 l21 -38 -30 -26
-29 -26 -9 33 c-10 40 0 103 15 98 6 -2 20 -21 32 -41z m811 21 c3 -13 -8 -63
-25 -113 -31 -92 -32 -86 -8 63 12 73 23 90 33 50z m-1612 -38 c-3 -14 -10
-34 -16 -45 -10 -19 -11 -19 -17 5 -8 30 19 97 31 78 5 -7 5 -24 2 -38z m146
3 l0 -48 -15 45 c-7 25 -14 46 -14 48 0 1 7 2 15 2 11 0 15 -12 14 -47z m961
-49 c0 -19 7 -46 16 -60 24 -36 10 -41 -15 -5 -22 30 -43 82 -55 136 l-6 30
30 -33 c21 -23 30 -42 30 -68z m436 -51 c-4 -141 -18 -237 -38 -275 -6 -13 -5
-18 6 -18 9 0 19 14 24 33 6 22 14 31 25 29 10 -2 17 4 17 11 0 15 29 32 37
23 10 -9 -10 -48 -40 -82 -34 -38 -155 -121 -183 -126 -9 -2 -19 3 -21 10 -3
6 0 12 6 12 6 0 11 5 11 11 0 5 -4 8 -9 4 -18 -10 -21 30 -6 78 19 63 21 66
45 60 16 -4 18 -8 9 -19 -9 -11 -8 -14 4 -14 10 0 21 18 31 53 34 118 56 216
61 277 7 63 11 80 21 80 3 0 3 -66 0 -147z m584 56 c-11 -26 -20 -54 -20 -61
1 -16 27 16 47 57 l14 30 -5 -38 c-3 -22 -1 -35 5 -32 5 4 9 12 9 20 0 8 5 17
11 20 7 5 8 -5 3 -30 -5 -27 -4 -36 5 -31 7 5 11 -1 11 -16 0 -21 -43 -60 -60
-55 -10 3 -100 -86 -100 -97 0 -17 -57 -67 -124 -108 -77 -48 -90 -48 -43 0
20 20 50 53 66 71 25 30 31 33 45 22 14 -12 16 -12 10 3 -3 9 -10 16 -14 16
-8 0 18 53 65 135 13 22 36 73 51 114 24 65 28 71 36 51 6 -17 3 -37 -12 -71z
m-2401 -6 c1 -12 7 -42 15 -65 8 -24 17 -59 21 -78 7 -35 7 -35 -13 -15 -24
24 -52 137 -51 202 l1 48 13 -35 c7 -19 14 -45 14 -57z m881 77 c0 -12 -40
-33 -48 -25 -4 4 2 13 12 21 23 16 36 18 36 4z m1070 -66 c0 -38 -4 -63 -9
-59 -12 7 -25 110 -16 124 14 24 25 -3 25 -65z m-2505 -77 c-4 -23 -13 -52
-19 -65 -11 -21 -13 -20 -38 30 -16 33 -28 77 -31 118 l-6 65 51 -53 c48 -50
49 -54 43 -95z m910 113 c-4 -12 -9 -19 -12 -17 -3 3 -2 15 2 27 4 12 9 19 12
17 3 -3 2 -15 -2 -27z m839 -23 c16 -22 29 -54 31 -76 1 -21 9 -49 18 -62 29
-46 39 -100 35 -178 -4 -70 -9 -84 -49 -149 -28 -46 -46 -66 -52 -59 -7 12
-30 -9 -40 -37 -10 -27 -15 3 -6 39 23 105 38 219 29 234 -7 12 -9 4 -10 -27
0 -47 -28 -172 -41 -186 -17 -18 -12 87 15 329 3 22 5 51 6 65 1 20 5 16 24
-25 12 -27 28 -69 36 -92 7 -24 17 -43 22 -43 4 0 -1 24 -12 53 -11 28 -20 59
-21 67 0 8 -11 37 -24 65 -24 52 -24 79 2 48 14 -17 14 -17 8 2 -4 11 -9 36
-12 55 -6 38 -3 36 41 -23z m1154 -29 c-23 -55 -97 -188 -104 -188 -2 0 -1 15
1 33 4 29 3 28 -9 -8 -7 -22 -20 -41 -29 -43 -21 -4 -21 -4 3 62 23 59 52 96
44 54 -4 -21 -4 -21 4 -3 5 11 14 34 19 50 6 17 14 39 18 49 6 14 5 17 -4 11
-10 -6 -11 -2 -6 16 10 34 23 46 18 16 -3 -16 1 -26 12 -30 12 -5 20 3 32 31
11 25 18 32 20 20 2 -9 -6 -40 -19 -70z m-1738 52 c6 -11 8 -20 6 -20 -3 0
-10 9 -16 20 -6 11 -8 20 -6 20 3 0 10 -9 16 -20z m1167 -42 c-7 -69 -42 -220
-59 -255 -11 -21 -28 -23 -28 -2 0 6 5 7 10 4 6 -3 10 -5 10 -3 1 48 42 293
50 304 21 24 23 16 17 -48z m773 17 c0 -25 -4 -45 -10 -45 -11 0 -13 33 -4 68
10 34 14 27 14 -23z m-470 -26 c0 -56 -4 -66 -47 -129 -45 -65 -73 -91 -59
-54 3 8 15 52 26 96 19 74 55 148 73 148 4 0 7 -27 7 -61z m-2896 -52 c35 -75
42 -98 29 -95 -13 2 -37 40 -88 136 -7 12 2 68 10 61 2 -2 24 -48 49 -102z
m1369 88 c4 -8 2 -17 -3 -20 -6 -4 -10 3 -10 14 0 25 6 27 13 6z m107 5 c0 -5
-5 -10 -11 -10 -5 0 -7 5 -4 10 3 6 8 10 11 10 2 0 4 -4 4 -10z m244 -25 c4
-21 2 -44 -5 -57 -12 -22 -13 -21 -27 20 -11 34 -11 46 -2 57 19 23 27 18 34
-20z m1748 -13 c-23 -51 -65 -112 -97 -142 l-27 -25 24 45 c13 25 41 67 61 93
20 27 37 55 37 63 0 9 4 12 10 9 5 -3 3 -20 -8 -43z m-1882 11 c0 -25 -1 -26
-20 -8 -21 19 -18 35 6 35 9 0 14 -10 14 -27z m1129 -39 c-6 -32 -17 -70 -24
-84 -7 -14 -18 -51 -26 -83 -14 -65 -34 -91 -24 -30 10 51 62 240 72 256 11
19 12 -3 2 -59z m-1596 0 c-2 -54 -13 -105 -22 -100 -14 9 -20 85 -9 123 12
45 32 30 31 -23z m196 -7 c0 -27 -2 -29 -9 -12 -12 28 -12 57 0 50 6 -3 10
-21 9 -38z m311 -7 c0 -14 -5 -32 -10 -40 -7 -11 -10 1 -10 40 0 39 3 51 10
40 5 -8 10 -26 10 -40z m636 -58 c-3 -21 -5 -41 -6 -45 0 -5 -4 -5 -10 -2 -5
3 -9 16 -9 28 1 12 -1 47 -5 77 l-7 55 21 -38 c15 -28 20 -49 16 -75z m-1096
65 c0 -5 -4 -5 -10 -2 -5 3 -10 14 -10 23 0 15 2 15 10 2 5 -8 10 -19 10 -23z
m638 -34 c1 -47 -1 -63 -8 -53 -11 17 -13 64 -4 98 4 12 7 22 8 22 2 0 3 -30
4 -67z m1603 44 c-10 -9 -11 -8 -5 6 3 10 9 15 12 12 3 -3 0 -11 -7 -18z
m-2367 -13 c4 -15 2 -32 -3 -37 -8 -8 -11 -7 -11 4 0 7 -3 24 -6 37 -4 12 -2
22 4 22 5 0 13 -12 16 -26z m532 -20 c15 -36 19 -94 6 -78 -5 5 -16 35 -25 67
-17 61 -5 68 19 11z m334 -11 l0 -58 -24 40 c-23 40 -23 40 -4 58 11 9 22 17
24 17 2 0 4 -26 4 -57z m-489 25 c2 -19 8 -214 9 -280 0 -32 5 -58 10 -58 6 0
9 3 9 8 -1 4 0 18 1 32 l2 25 8 -26 c14 -48 63 -149 71 -149 9 0 -1 32 -26 81
-34 65 -55 152 -55 227 0 41 2 73 5 71 2 -3 9 -45 14 -94 12 -99 34 -153 66
-157 18 -3 20 -10 21 -70 0 -38 -3 -68 -8 -68 -8 0 -5 -34 8 -97 2 -13 9 -23
15 -23 7 0 9 10 7 24 -4 18 -1 23 10 19 11 -5 11 -1 -3 21 -15 22 -17 43 -13
135 3 59 10 116 16 127 7 11 12 14 13 7 2 -15 2 -16 17 -68 6 -22 16 -79 22
-128 12 -86 12 -88 -13 -120 -22 -29 -30 -33 -61 -29 -27 3 -36 9 -36 23 0 10
-4 20 -9 23 -5 3 -12 21 -15 40 -7 34 -30 54 -41 35 -14 -21 -25 6 -27 64 -1
60 -1 61 -7 17 l-7 -45 -16 36 c-8 20 -14 49 -11 65 11 74 10 232 -2 267 -7
21 -11 47 -8 57 6 22 32 27 34 8z m1315 -65 c-3 -43 -5 -86 -6 -95 0 -12 -8
-18 -23 -18 l-24 0 26 95 c14 52 28 95 29 95 2 0 1 -35 -2 -77z m-3032 51 c9
-24 7 -28 -9 -14 -17 14 -20 30 -6 30 5 0 12 -7 15 -16z m1976 -53 c15 -46 19
-75 14 -100 -3 -20 -9 -30 -11 -22 -5 11 -7 11 -14 0 -6 -9 -9 0 -9 27 0 23
-3 70 -6 105 -4 35 -4 62 -1 59 3 -3 15 -34 27 -69z m860 34 c0 -14 -4 -25 -9
-25 -4 0 -6 11 -3 25 2 14 6 25 8 25 2 0 4 -11 4 -25z m-1381 -7 c0 -13 -4
-32 -9 -43 -7 -15 -9 -10 -9 23 -1 23 4 42 9 42 6 0 10 -10 9 -22z m56 12 c3
-5 2 -10 -4 -10 -5 0 -13 5 -16 10 -3 6 -2 10 4 10 5 0 13 -4 16 -10z m629
-47 c4 -34 3 -60 -4 -67 -7 -7 -10 1 -10 26 0 19 -3 50 -6 67 -4 18 -2 31 3
31 6 0 13 -26 17 -57z m913 35 c-3 -8 -6 -5 -6 6 -1 11 2 17 5 13 3 -3 4 -12
1 -19z m-2971 -23 c27 -28 33 -40 28 -60 -6 -26 4 -33 23 -14 17 17 35 0 29
-26 -4 -17 0 -28 16 -39 31 -22 9 -20 -58 5 -38 14 -52 24 -43 29 9 6 0 14
-30 26 -28 11 -39 20 -32 27 6 6 17 4 32 -7 13 -9 29 -16 36 -16 25 0 12 26
-22 44 -25 14 -35 26 -35 43 0 32 15 29 56 -12z m543 -75 c0 -8 -11 7 -25 33
-15 29 -23 56 -19 65 5 12 12 3 25 -33 10 -27 19 -57 19 -65z m1404 90 c-5
-19 -23 -29 -23 -12 0 7 20 32 26 32 1 0 0 -9 -3 -20z m-216 -47 c-3 -10 -5
-2 -5 17 0 19 2 27 5 18 2 -10 2 -26 0 -35z m55 -102 c-6 -44 -22 -49 -22 -8
0 19 -2 63 -5 98 l-5 64 18 -62 c10 -34 17 -75 14 -92z m318 115 c19 -32 21
-47 19 -185 -2 -130 -4 -154 -21 -178 l-19 -28 6 45 c5 33 3 41 -4 30 -8 -11
-10 -6 -5 20 5 31 4 33 -7 15 -7 -11 -12 -33 -11 -50 1 -16 -2 -43 -7 -60 -9
-28 -9 -29 -10 -5 -1 22 -3 23 -12 7 -5 -9 -11 -35 -12 -57 -1 -22 -4 -40 -8
-40 -4 0 -13 -14 -22 -31 l-15 -32 -11 54 c-7 35 -8 83 -2 134 4 44 7 82 5 84
-1 2 -9 -19 -17 -45 -14 -47 -15 -48 -22 -21 -7 28 -1 115 12 166 6 23 7 21
24 -20 l18 -44 1 125 2 125 20 -43 c11 -24 23 -66 27 -93 9 -52 21 -77 21 -41
0 15 4 20 16 15 9 -3 14 -13 11 -24 -3 -11 0 -22 6 -26 11 -7 3 189 -9 221
-11 28 3 18 26 -18z m894 -15 c-9 -23 -18 -40 -21 -38 -2 3 4 23 13 46 9 23
18 40 21 38 2 -3 -4 -23 -13 -46z m-1710 -15 c5 -31 11 -43 20 -40 8 3 20 -19
34 -67 12 -40 20 -75 16 -78 -9 -9 -22 20 -29 68 -8 56 -16 71 -25 46 -5 -15
-12 -5 -27 40 -19 57 -20 91 -3 80 4 -3 11 -25 14 -49z m146 34 c0 -22 16 -27
22 -8 3 7 10 -23 18 -66 7 -43 19 -95 26 -115 13 -35 13 -34 14 42 0 116 18
91 39 -53 5 -30 9 -50 10 -45 4 25 21 -24 21 -60 0 -49 -15 -79 -26 -52 -3 9
-4 26 -1 37 3 11 1 20 -3 20 -7 0 -18 -48 -35 -155 -1 -5 -3 -23 -3 -38 -2
-27 -4 -28 -34 -22 -18 4 -59 18 -91 33 -44 19 -56 29 -51 41 3 9 8 54 10 101
2 57 8 86 16 89 7 2 16 8 19 14 7 10 -7 80 -22 108 -7 13 -4 34 8 71 l18 53 6
-67 c5 -65 22 -103 40 -92 5 3 4 14 -2 25 -6 11 -14 51 -18 90 -6 54 -4 69 6
69 7 0 13 -9 13 -20z m1000 -10 c0 -10 7 -25 15 -34 10 -9 11 -17 5 -21 -6 -4
-17 9 -25 29 -17 41 -19 60 -5 51 6 -3 10 -15 10 -25z m-1854 -16 c11 -23 13
-39 7 -45 -6 -6 -13 7 -20 36 -6 25 -9 45 -7 45 2 0 11 -16 20 -36z m2478
-109 c-61 -130 -93 -168 -159 -186 -22 -6 -43 -13 -48 -16 -4 -2 -10 2 -13 11
-6 15 71 126 88 126 5 0 -1 -13 -13 -30 -13 -16 -19 -33 -15 -37 4 -5 16 3 27
17 10 14 25 32 32 40 41 47 79 102 88 129 6 17 15 31 20 31 5 0 9 5 9 12 0 6
8 20 18 31 35 39 23 -9 -34 -128z m442 107 c-9 -17 -29 -40 -45 -51 -32 -23
-52 -28 -33 -9 7 7 12 20 12 30 0 16 69 73 78 64 2 -2 -4 -18 -12 -34z m-2992
-18 c5 -15 2 -24 -10 -28 -28 -11 -38 9 -24 44 14 33 20 29 34 -16z m1096 -25
c3 -54 0 -113 -5 -107 -11 11 -24 109 -18 144 5 31 8 34 14 17 4 -11 8 -35 9
-54z m351 30 l-10 -24 0 26 c-1 14 2 29 6 33 12 12 14 -9 4 -35z m-1797 15 c9
-24 7 -28 -9 -14 -17 14 -20 30 -6 30 5 0 12 -7 15 -16z m1693 -21 c-3 -10 -5
-4 -5 12 0 17 2 24 5 18 2 -7 2 -21 0 -30z m1364 -26 c-17 -17 -24 -1 -10 25
12 21 14 21 17 4 2 -10 -1 -23 -7 -29z m-801 4 c0 -10 6 -21 14 -24 12 -5 12
-13 4 -41 -6 -20 -15 -36 -18 -36 -4 0 -10 -12 -13 -27 -3 -16 -22 -53 -41
-83 l-35 -55 -1 48 c0 27 8 64 19 85 10 20 27 63 37 95 17 56 34 75 34 38z
m998 -1 c-7 -11 -19 -22 -26 -25 -13 -5 -8 8 13 32 17 20 26 15 13 -7z m-3174
-78 c-19 -5 -42 14 -59 49 -23 44 -4 42 36 -3 27 -31 33 -44 23 -46z m61 58
c17 -33 18 -40 7 -40 -8 0 -16 14 -40 63 -2 4 1 7 7 7 6 0 17 -13 26 -30z
m599 -35 c14 -31 26 -59 26 -63 0 -11 -41 58 -57 96 -23 54 2 27 31 -33z
m-448 -28 c19 -40 28 -63 19 -52 -24 29 -78 138 -65 130 6 -3 26 -39 46 -78z
m679 -47 c20 -63 38 -122 41 -130 3 -8 -2 -4 -9 10 -14 24 -87 231 -87 247 0
25 23 -28 55 -127z m2104 100 c36 0 23 -27 -46 -99 -58 -58 -115 -101 -138
-101 -16 0 -1 38 33 81 20 26 50 69 65 94 24 38 31 43 47 35 10 -6 28 -10 39
-10z m-1309 -116 c-13 -63 -22 -61 -39 8 -16 66 -14 77 9 71 15 -4 21 2 27 23
8 29 8 28 11 -9 2 -21 -2 -63 -8 -93z m1060 113 c0 -7 -7 -22 -15 -33 -13 -17
-14 -16 -4 14 11 33 19 41 19 19z m-2460 -37 c0 -12 -3 -12 -16 2 -9 9 -13 21
-9 28 9 14 25 -5 25 -30z m1550 36 c0 -11 -19 -15 -25 -6 -3 5 1 10 9 10 9 0
16 -2 16 -4z m-100 -38 c0 -36 -4 -35 -14 5 -4 16 -2 27 4 27 5 0 10 -14 10
-32z m-1330 -60 c16 -31 34 -59 40 -63 13 -8 13 -25 0 -25 -11 0 -75 113 -85
150 -9 34 7 13 45 -62z m230 -18 c29 -47 58 -98 66 -113 15 -27 14 -28 -4 -18
-25 13 -51 54 -97 156 -43 96 -34 89 35 -25z m891 34 c5 -6 6 -20 2 -30 -6
-16 -8 -14 -14 11 -4 17 -6 44 -6 60 l0 30 4 -30 c3 -16 9 -35 14 -41z m89 41
c0 -8 6 -34 14 -57 36 -116 38 -126 29 -143 -8 -14 -11 -10 -17 21 -3 22 -15
76 -25 121 -10 46 -15 80 -10 77 5 -3 9 -12 9 -19z m-283 -7 c-3 -8 -6 -5 -6
6 -1 11 2 17 5 13 3 -3 4 -12 1 -19z m882 -68 c-2 -70 -5 -82 -27 -102 l-24
-23 7 24 c5 16 4 21 -4 17 -6 -4 -11 -13 -11 -20 0 -20 -58 -106 -72 -106 -9
0 -9 3 0 12 7 7 12 19 12 27 0 14 111 251 118 251 2 0 2 -36 1 -80z m-719 17
c0 -16 -18 3 -23 25 -6 22 -5 22 8 4 8 -11 15 -24 15 -29z m1630 35 c0 -7 -22
-21 -64 -41 -5 -2 1 8 15 22 24 25 49 35 49 19z m-3157 -15 c30 -13 68 -47 53
-47 -10 0 -96 51 -96 56 0 7 9 5 43 -9z m1374 -29 c-3 -7 -5 -2 -5 12 0 14 2
19 5 13 2 -7 2 -19 0 -25z m981 -5 c-9 -34 -83 -121 -94 -110 -6 6 91 147 101
147 2 0 -1 -17 -7 -37z m-2168 -15 c0 -9 -51 -11 -74 -2 -9 3 -16 12 -16 19 0
9 10 10 45 2 25 -6 45 -14 45 -19z m2650 2 c-6 -11 -12 -20 -14 -20 -2 0 -2 9
1 20 3 11 9 20 15 20 5 0 4 -9 -2 -20z m200 -5 c0 -2 -22 -16 -50 -30 -27 -14
-50 -23 -50 -20 0 2 21 16 48 29 53 28 52 28 52 21z m-2922 -60 c48 -25 143
-68 212 -95 146 -58 148 -65 5 -15 -55 20 -118 42 -140 50 -22 7 -65 18 -95
24 -55 10 -155 42 -166 54 -3 3 11 9 32 12 22 4 44 8 49 10 6 2 11 4 13 4 1 1
42 -19 90 -44z m142 0 c35 -34 70 -46 70 -24 0 6 12 1 26 -10 32 -25 50 -27
58 -5 4 10 -3 24 -16 36 -19 16 -20 19 -5 14 11 -3 30 -9 43 -12 24 -6 29 -29
6 -29 -29 0 -13 -19 30 -36 26 -10 65 -30 85 -43 21 -14 70 -35 108 -47 39
-11 73 -24 78 -28 9 -9 -90 3 -158 19 -92 21 -485 187 -485 205 0 1 28 1 62
-1 55 -4 66 -8 98 -39z m165 35 c3 -5 -1 -10 -9 -10 -9 0 -16 5 -16 10 0 6 4
10 9 10 6 0 13 -4 16 -10z m2015 0 c0 -5 -4 -10 -10 -10 -5 0 -10 5 -10 10 0
6 5 10 10 10 6 0 10 -4 10 -10z m198 -23 c-32 -32 -95 -67 -118 -66 -15 0 -19
3 -10 6 8 3 34 19 57 34 23 16 46 29 51 29 6 0 13 8 17 18 5 11 9 13 12 5 3
-7 -1 -19 -9 -26z m170 -7 c-7 -10 -14 -17 -17 -15 -4 4 18 35 25 35 2 0 -1
-9 -8 -20z m212 16 c0 -2 -7 -7 -16 -10 -8 -3 -12 -2 -9 4 6 10 25 14 25 6z
m-2162 -61 c27 -31 43 -73 31 -81 -6 -3 -11 -4 -13 -3 -30 41 -46 71 -54 104
-10 37 -10 38 4 20 8 -11 22 -29 32 -40z m1589 23 c-3 -8 -6 -5 -6 6 -1 11 2
17 5 13 3 -3 4 -12 1 -19z m-377 -113 c-17 -30 -34 -55 -37 -55 -2 0 7 20 20
45 28 49 28 56 -1 25 -17 -19 -19 -19 -17 -2 0 10 14 41 31 68 l29 49 3 -38
c2 -28 -5 -52 -28 -92z m695 96 c-8 -25 -70 -58 -187 -101 -85 -31 -121 -33
-98 -5 18 22 4 18 -45 -11 -52 -30 -70 -25 -50 12 17 33 77 72 83 54 3 -7 12
-20 22 -30 15 -15 16 -18 1 -28 -14 -10 -13 -11 4 -5 11 3 41 23 66 44 25 20
61 40 80 44 19 4 54 16 79 29 25 12 47 21 48 20 2 -2 1 -12 -3 -23z m204 6
c-2 -1 -13 -9 -24 -17 -19 -14 -19 -14 -6 3 7 9 18 17 24 17 6 0 8 -1 6 -3z
m-1539 -69 c0 -10 -4 -18 -8 -18 -17 0 -32 25 -32 55 l0 30 20 -25 c11 -14 20
-33 20 -42z m999 36 c-6 -8 -18 -14 -27 -14 -13 0 -12 3 3 20 20 22 43 17 24
-6z m446 -4 c-28 -16 -58 -27 -67 -24 -12 3 -18 0 -18 -10 0 -9 -6 -13 -14
-10 -8 3 -17 1 -21 -5 -7 -13 -25 -15 -25 -3 0 10 52 41 76 45 11 2 35 11 54
19 59 27 68 19 15 -12z m-1208 -2 c-3 -8 -6 -5 -6 6 -1 11 2 17 5 13 3 -3 4
-12 1 -19z m64 -72 c6 -37 9 -70 6 -73 -3 -2 -15 1 -27 7 -17 9 -21 18 -17 46
3 19 10 41 17 49 9 10 9 15 1 15 -6 0 -11 10 -11 22 0 45 21 1 31 -66z m-1026
-5 c-7 -6 -39 29 -55 60 -8 16 0 11 24 -15 20 -22 34 -42 31 -45z m1853 53
c-16 -16 -73 -10 -62 7 9 14 46 11 38 -3 -4 -7 1 -5 11 4 23 21 35 14 13 -8z
m-1963 -4 c3 -6 -1 -7 -9 -4 -18 7 -21 14 -7 14 6 0 13 -4 16 -10z m244 -88
c-18 -7 -84 33 -96 58 -11 23 -10 26 10 30 17 5 30 -4 59 -40 20 -25 32 -46
27 -48z m522 57 c-9 -22 -10 -22 -10 -3 -1 11 2 24 6 27 12 12 14 0 4 -24z
m556 -6 c-3 -10 -5 -4 -5 12 0 17 2 24 5 18 2 -7 2 -21 0 -30z m272 -27 c-25
-51 -40 -66 -84 -85 l-30 -13 21 24 c12 12 29 37 37 53 9 17 16 26 17 22 0 -5
12 6 26 23 36 42 41 31 13 -24z m-780 9 c23 -39 22 -40 -14 -23 -26 12 -29 17
-19 42 8 22 9 21 33 -19z m51 4 c0 -5 -4 -9 -10 -9 -5 0 -10 7 -10 16 0 8 5
12 10 9 6 -3 10 -10 10 -16z m48 -16 c12 -37 2 -51 -21 -25 -11 12 -12 23 -6
41 11 28 12 27 27 -16z m506 22 c-4 -8 -8 -15 -10 -15 -2 0 -4 7 -4 15 0 8 4
15 10 15 5 0 7 -7 4 -15z m663 -1 c-52 -28 -386 -146 -401 -141 -5 2 11 10 35
19 64 23 234 87 304 114 68 26 104 31 62 8z m-737 -44 c-7 -17 -15 -28 -18
-26 -2 3 1 19 8 36 7 17 15 28 18 26 2 -3 -1 -19 -8 -36z m-1025 20 c3 -5 1
-10 -4 -10 -6 0 -11 5 -11 10 0 6 2 10 4 10 3 0 8 -4 11 -10z m948 -76 c-25
-39 -30 -7 -6 43 18 37 18 37 21 11 2 -15 -5 -39 -15 -54z m137 46 c-6 -11
-15 -20 -20 -20 -6 0 -5 9 2 20 7 11 16 20 21 20 4 0 3 -9 -3 -20z m-1036 -11
c-3 -6 -1 -16 6 -24 10 -12 7 -12 -18 -3 -25 10 -28 14 -19 29 6 9 16 15 24
12 7 -3 10 -9 7 -14z m494 -32 c4 -20 -17 -32 -31 -18 -6 6 -22 11 -36 11 -38
0 -50 11 -40 37 8 22 8 22 56 3 26 -10 49 -25 51 -33z m212 49 c0 -3 -4 -8
-10 -11 -5 -3 -10 -1 -10 4 0 6 5 11 10 11 6 0 10 -2 10 -4z m620 -3 c0 -3
-11 -20 -24 -38 -22 -28 -79 -55 -117 -55 -21 0 55 68 85 76 14 3 29 10 32 15
6 10 24 12 24 2z m-257 -35 c-3 -13 -14 -32 -24 -44 -11 -11 -17 -23 -14 -26
3 -3 -1 -8 -8 -11 -19 -7 -11 24 16 71 22 37 38 42 30 10z m-909 -3 c83 -16
106 -25 65 -25 -13 0 -36 -6 -51 -14 -24 -13 -32 -12 -77 10 -51 23 -67 44
-33 44 9 0 53 -7 96 -15z m374 -20 c-3 -3 -9 2 -12 12 -6 14 -5 15 5 6 7 -7
10 -15 7 -18z m386 -5 c-10 -16 -20 -28 -22 -26 -4 5 28 56 35 56 2 0 -4 -13
-13 -30z m-304 -5 c-13 -15 -50 -8 -50 9 0 8 11 11 30 8 23 -3 28 -7 20 -17z
m156 -12 c-11 -11 -19 6 -11 24 8 17 8 17 12 0 3 -10 2 -21 -1 -24z m234 23
c0 -2 -8 -10 -17 -17 -16 -13 -17 -12 -4 4 13 16 21 21 21 13z m-338 -28 c-7
-7 -12 -8 -12 -2 0 14 12 26 19 19 2 -3 -1 -11 -7 -17z m478 15 c0 -9 -57 -43
-71 -43 -18 0 3 22 35 36 37 16 36 16 36 7z m-830 -13 c0 -19 -41 -32 -81 -25
-48 8 -44 16 14 26 63 10 67 10 67 -1z m85 -40 c3 -5 1 -10 -4 -10 -6 0 -11 5
-11 10 0 6 2 10 4 10 3 0 8 -4 11 -10z m180 -10 c3 -5 -3 -10 -14 -10 -11 0
-23 5 -26 10 -3 6 3 10 14 10 11 0 23 -4 26 -10z m510 -9 c-2 -5 -17 -11 -32
-14 l-27 -5 24 18 c23 18 46 18 35 1z m-462 -51 c-13 -5 -23 -16 -23 -25 0
-11 -11 -15 -46 -15 -30 0 -43 4 -38 11 10 16 58 34 96 36 29 2 30 1 11 -7z
m97 -4 c0 -2 -9 -6 -20 -9 -11 -3 -20 -1 -20 4 0 5 9 9 20 9 11 0 20 -2 20 -4z"/>
<path d="M2926 3922 c-11 -18 -16 -127 -8 -157 7 -24 10 -10 14 65 6 95 5 109
-6 92z"/>
<path d="M3140 3810 c-7 -28 -10 -53 -8 -55 3 -3 10 18 16 47 7 28 11 53 8 55
-2 2 -9 -19 -16 -47z"/>
<path d="M1932 3870 c0 -19 2 -27 5 -17 2 9 2 25 0 35 -3 9 -5 1 -5 -18z"/>
<path d="M1661 4064 c0 -11 3 -14 6 -6 3 7 2 16 -1 19 -3 4 -6 -2 -5 -13z"/>
<path d="M1760 3798 c0 -7 8 -23 18 -36 15 -19 18 -20 18 -5 0 10 -9 26 -18
36 -12 11 -18 13 -18 5z"/>
<path d="M1530 3961 c0 -6 4 -13 10 -16 6 -3 7 1 4 9 -7 18 -14 21 -14 7z"/>
<path d="M1652 3859 c-1 -41 11 -70 42 -104 34 -36 34 -22 0 18 -15 17 -23 38
-21 49 3 10 1 20 -4 23 -4 3 -6 12 -3 19 3 8 1 17 -4 20 -5 3 -9 -8 -10 -25z"/>
<path d="M1276 3872 c-4 -6 -4 -17 0 -24 4 -6 11 -25 15 -42 l7 -31 0 30 c0
44 -12 83 -22 67z"/>
<path d="M1590 3865 c0 -5 5 -17 10 -25 5 -8 10 -10 10 -5 0 6 -5 17 -10 25
-5 8 -10 11 -10 5z"/>
<path d="M1123 3825 c0 -8 4 -15 9 -15 4 0 8 7 8 15 0 8 -4 15 -8 15 -5 0 -9
-7 -9 -15z"/>
<path d="M1520 3833 c0 -6 8 -17 18 -24 16 -13 16 -13 2 6 -8 11 -16 22 -17
24 -2 2 -3 0 -3 -6z"/>
<path d="M1616 3800 c4 -14 15 -41 26 -60 13 -25 17 -28 12 -10 -4 14 -15 41
-26 60 -13 25 -17 28 -12 10z"/>
<path d="M1082 3770 c-1 -14 3 -43 7 -65 6 -26 9 -31 9 -15 1 14 -3 43 -7 65
-6 26 -9 31 -9 15z"/>
<path d="M1556 3778 c3 -4 9 -8 15 -8 5 0 9 4 9 8 0 5 -7 9 -15 9 -8 0 -12 -4
-9 -9z"/>
<path d="M1144 3751 c-15 -39 -6 -131 12 -124 9 3 10 11 3 30 -12 32 -12 80 1
104 6 10 7 19 3 19 -5 0 -13 -13 -19 -29z"/>
<path d="M1599 3735 c18 -35 36 -52 53 -52 9 0 15 4 12 9 -3 4 -11 8 -19 8 -7
0 -23 12 -35 28 -11 15 -16 18 -11 7z"/>
<path d="M1572 3720 c0 -14 2 -19 5 -12 2 6 2 18 0 25 -3 6 -5 1 -5 -13z"/>
<path d="M1731 3704 c0 -11 3 -14 6 -6 3 7 2 16 -1 19 -3 4 -6 -2 -5 -13z"/>
<path d="M1280 3681 c0 -6 4 -13 10 -16 6 -3 7 1 4 9 -7 18 -14 21 -14 7z"/>
<path d="M1580 3676 c0 -8 4 -17 9 -20 5 -3 18 -26 30 -51 12 -25 25 -45 31
-45 5 0 1 15 -10 33 -10 17 -27 47 -36 65 -18 35 -24 40 -24 18z"/>
<path d="M1211 3650 c0 -8 4 -24 9 -35 5 -13 9 -14 9 -5 0 8 -4 24 -9 35 -5
13 -9 14 -9 5z"/>
<path d="M1420 3657 c0 -11 82 -67 106 -72 23 -5 21 -3 -11 13 -22 11 -49 29
-59 41 -17 18 -36 28 -36 18z"/>
<path d="M1256 3627 c3 -10 9 -15 12 -12 3 3 0 11 -7 18 -10 9 -11 8 -5 -6z"/>
<path d="M1280 3611 c0 -5 5 -13 10 -16 6 -3 10 -2 10 4 0 5 -4 13 -10 16 -5
3 -10 2 -10 -4z"/>
<path d="M1150 3602 c0 -5 7 -9 15 -9 8 0 15 4 15 9 0 4 -7 8 -15 8 -8 0 -15
-4 -15 -8z"/>
<path d="M1160 3568 c0 -11 39 -88 45 -88 2 0 2 8 -1 18 -4 11 1 8 15 -8 24
-29 28 -48 6 -30 -9 8 -15 8 -15 2 0 -6 10 -14 23 -17 12 -4 33 -17 47 -29 22
-20 22 -19 -3 12 -18 22 -27 46 -28 70 -1 31 -2 33 -8 13 -7 -27 -19 -17 -40
35 -11 28 -41 44 -41 22z m40 -53 c0 -5 -5 -3 -10 5 -5 8 -10 20 -10 25 0 6 5
3 10 -5 5 -8 10 -19 10 -25z"/>
<path d="M1232 3560 c0 -14 2 -19 5 -12 2 6 2 18 0 25 -3 6 -5 1 -5 -13z"/>
<path d="M1297 3567 c-3 -7 3 -13 14 -13 13 0 15 3 7 13 -6 7 -12 13 -13 13
-2 0 -5 -6 -8 -13z"/>
<path d="M1343 3551 c1 -11 4 -18 8 -15 4 2 12 -4 18 -13 5 -10 12 -16 14 -13
3 3 -5 17 -18 32 -20 23 -24 25 -22 9z"/>
<path d="M1324 3479 c25 -53 36 -69 36 -52 0 11 -49 103 -55 103 -2 0 6 -23
19 -51z"/>
<path d="M1588 3493 c7 -3 16 -2 19 1 4 3 -2 6 -13 5 -11 0 -14 -3 -6 -6z"/>
<path d="M1533 3483 c9 -2 23 -2 30 0 6 3 -1 5 -18 5 -16 0 -22 -2 -12 -5z"/>
<path d="M1456 3471 c-3 -4 6 -6 19 -3 14 2 25 6 25 8 0 8 -39 4 -44 -5z"/>
<path d="M1280 3445 c8 -10 32 -28 52 -41 37 -24 49 -44 26 -44 -6 0 -20 7
-30 17 -10 9 -21 14 -23 11 -3 -3 9 -15 27 -27 32 -20 32 -21 11 -27 -13 -4
-23 -10 -23 -15 0 -11 1 -11 38 2 17 6 29 16 27 22 -2 7 -6 25 -9 40 -4 15
-10 25 -15 23 -5 -3 -28 9 -52 26 -24 17 -37 23 -29 13z"/>
<path d="M782 3611 c-6 -17 -9 -31 -6 -31 7 0 25 52 20 57 -2 2 -8 -10 -14
-26z"/>
<path d="M929 3351 c6 -10 23 -26 38 -36 26 -16 25 -15 -6 19 -39 40 -46 44
-32 17z"/>
<path d="M880 3354 c0 -17 40 -64 53 -63 8 0 7 3 -1 6 -8 3 -22 19 -33 37 -10
17 -19 26 -19 20z"/>
<path d="M1017 3265 c10 -13 22 -25 27 -25 5 0 -1 11 -14 25 -30 32 -36 32
-13 0z"/>
<path d="M756 3220 c4 -19 11 -42 17 -51 9 -15 12 -15 28 -1 10 9 15 20 12 25
-3 6 -11 3 -19 -7 -11 -15 -14 -12 -28 26 -14 39 -15 40 -10 8z"/>
<path d="M782 3220 c0 -19 2 -27 5 -17 2 9 2 25 0 35 -3 9 -5 1 -5 -18z"/>
<path d="M742 3130 c0 -19 2 -27 5 -17 2 9 2 25 0 35 -3 9 -5 1 -5 -18z"/>
<path d="M790 3136 c0 -8 42 -76 46 -76 3 0 -5 18 -16 40 -18 35 -30 49 -30
36z"/>
<path d="M712 3105 c0 -16 2 -22 5 -12 2 9 2 23 0 30 -3 6 -5 -1 -5 -18z"/>
<path d="M848 3035 c6 -11 30 -38 53 -60 43 -39 43 -39 -6 15 -27 30 -51 57
-53 60 -3 3 0 -4 6 -15z"/>
<path d="M1101 3009 c-13 -11 -31 -24 -40 -29 -9 -5 -13 -11 -10 -14 3 -4 17
3 30 15 13 11 31 25 39 29 8 5 13 11 10 13 -3 3 -16 -4 -29 -14z"/>
<path d="M896 2804 c-3 -7 0 -16 6 -20 7 -4 8 -3 4 4 -11 18 2 14 34 -10 16
-12 32 -19 35 -17 3 3 -13 17 -34 31 -31 20 -41 23 -45 12z"/>
<path d="M801 2756 c2 -2 15 -9 29 -15 24 -11 24 -11 6 3 -16 13 -49 24 -35
12z"/>
<path d="M982 2740 c-42 -23 -49 -30 -31 -30 8 0 28 11 44 25 36 29 32 31 -13
5z"/>
<path d="M1042 2730 c-42 -30 -57 -50 -24 -30 24 14 78 60 71 60 -3 0 -25 -14
-47 -30z"/>
<path d="M928 2743 c7 -3 16 -2 19 1 4 3 -2 6 -13 5 -11 0 -14 -3 -6 -6z"/>
<path d="M2725 3181 c-46 -21 -92 -66 -76 -75 5 -4 34 12 63 34 29 22 56 40
61 40 4 0 7 5 7 10 0 13 -8 12 -55 -9z"/>
<path d="M3075 2847 c-33 -5 -98 -9 -145 -10 -47 -1 -91 -6 -97 -10 -16 -10
-17 -31 -2 -21 7 4 45 6 85 5 40 -1 92 3 116 10 24 6 71 11 106 11 46 -1 62 2
59 11 -4 14 -41 16 -122 4z"/>
<path d="M2200 2747 c-58 -15 -129 -35 -157 -43 -29 -8 -53 -19 -53 -25 0 -7
7 -8 18 -4 9 3 35 9 56 11 22 3 43 7 47 10 4 2 47 16 96 30 80 23 114 38 102
47 -2 2 -51 -10 -109 -26z"/>
<path d="M2060 2640 c0 -5 5 -10 10 -10 6 0 10 5 10 10 0 6 -4 10 -10 10 -5 0
-10 -4 -10 -10z"/>
<path d="M2090 2642 c0 -15 60 -26 73 -13 8 8 6 11 -8 11 -11 0 -30 3 -42 6
-13 4 -23 2 -23 -4z"/>
<path d="M3570 3012 c0 -4 10 -18 23 -32 34 -38 71 -92 87 -125 10 -22 14 -26
17 -13 6 22 -27 84 -72 136 -34 39 -55 52 -55 34z"/>
<path d="M1249 2814 c-21 -24 -22 -26 -3 -16 25 13 50 42 37 42 -5 0 -20 -12
-34 -26z"/>
<path d="M1406 2238 c3 -4 9 -8 15 -8 5 0 9 4 9 8 0 5 -7 9 -15 9 -8 0 -12 -4
-9 -9z"/>
<path d="M1440 2229 c0 -5 5 -7 10 -4 6 3 10 8 10 11 0 2 -4 4 -10 4 -5 0 -10
-5 -10 -11z"/>
<path d="M1470 2220 c0 -5 5 -10 10 -10 6 0 10 5 10 10 0 6 -4 10 -10 10 -5 0
-10 -4 -10 -10z"/>
<path d="M1517 2199 c7 -7 15 -10 18 -7 3 3 -2 9 -12 12 -14 6 -15 5 -6 -5z"/>
<path d="M1550 2176 c0 -2 7 -7 16 -10 8 -3 12 -2 9 4 -6 10 -25 14 -25 6z"/>
<path d="M1085 1769 c10 -84 31 -158 51 -180 26 -28 29 -15 6 23 -21 34 -42
127 -42 185 0 18 -5 33 -11 33 -8 0 -9 -19 -4 -61z"/>
<path d="M3531 1324 c0 -11 3 -14 6 -6 3 7 2 16 -1 19 -3 4 -6 -2 -5 -13z"/>
<path d="M3550 1300 c-19 -16 -30 -29 -24 -30 5 0 23 14 39 30 37 38 29 39
-15 0z"/>
<path d="M4271 1574 c0 -11 3 -14 6 -6 3 7 2 16 -1 19 -3 4 -6 -2 -5 -13z"/>
<path d="M2867 1308 c8 -44 13 -48 13 -10 0 17 -4 34 -10 37 -6 4 -7 -6 -3
-27z"/>
<path d="M2360 1270 c0 -5 5 -10 10 -10 6 0 10 5 10 10 0 6 -4 10 -10 10 -5 0
-10 -4 -10 -10z"/>
<path d="M3770 4333 c0 -12 38 -48 45 -41 3 2 -6 15 -20 28 -14 13 -25 19 -25
13z"/>
<path d="M675 3539 c-4 -6 -5 -12 -2 -15 2 -3 7 2 10 11 7 17 1 20 -8 4z"/>
<path d="M586 3393 c-6 -14 -5 -15 5 -6 7 7 10 15 7 18 -3 3 -9 -2 -12 -12z"/>
<path d="M556 3325 c-3 -9 -6 -22 -5 -28 0 -7 5 -1 10 12 5 13 8 26 5 28 -2 2
-6 -3 -10 -12z"/>
<path d="M511 2914 c0 -11 3 -14 6 -6 3 7 2 16 -1 19 -3 4 -6 -2 -5 -13z"/>
<path d="M502 2860 c0 -19 2 -27 5 -17 2 9 2 25 0 35 -3 9 -5 1 -5 -18z"/>
<path d="M492 2795 c-1 -16 -5 -41 -8 -55 -5 -22 -4 -23 6 -7 6 9 9 34 7 55
-3 32 -4 33 -5 7z"/>
<path d="M511 2744 c0 -11 3 -14 6 -6 3 7 2 16 -1 19 -3 4 -6 -2 -5 -13z"/>
<path d="M484 2578 c2 -76 0 -115 -5 -103 -6 13 -7 -1 -3 -39 9 -93 41 -146
74 -126 10 6 7 10 -11 15 -22 5 -49 49 -49 79 0 12 57 -3 131 -35 79 -34 79
-34 79 -14 0 8 -8 15 -17 15 -10 0 -41 11 -68 24 -28 12 -67 26 -88 30 -33 6
-37 10 -31 29 4 12 10 24 14 27 4 3 15 21 25 40 l17 35 -23 -24 -23 -24 -8 29
c-5 16 -6 57 -3 90 4 40 3 64 -5 69 -7 4 -9 -30 -6 -117z"/>
<path d="M532 2630 c0 -14 2 -19 5 -12 2 6 2 18 0 25 -3 6 -5 1 -5 -13z"/>
<path d="M551 2613 c-10 -26 -10 -27 4 -9 8 11 15 23 15 28 0 15 -7 8 -19 -19z"/>
<path d="M576 2603 c-6 -14 -5 -15 5 -6 7 7 10 15 7 18 -3 3 -9 -2 -12 -12z"/>
<path d="M4600 1861 c0 -10 31 -31 45 -31 11 0 -5 20 -26 30 -12 7 -19 7 -19
1z"/>
<path d="M3605 1029 c-16 -10 -34 -21 -40 -23 -5 -2 -7 -6 -4 -10 5 -6 69 30
88 50 11 11 -17 0 -44 -17z"/>
<path d="M3473 955 c-34 -18 -59 -36 -56 -39 6 -6 107 46 128 65 19 18 -11 7
-72 -26z"/>
</g>
</svg>
